<svg id="ea2blvlhhtg1" xmlns="http://www.w3.org/2000/svg" xmlns:xlink="http://www.w3.org/1999/xlink" viewBox="0 0 2363.200000 2361.900000" shape-rendering="geometricPrecision" text-rendering="geometricPrecision"><style><![CDATA[#ea2blvlhhtg4_tr {animation: ea2blvlhhtg4_tr__tr 120000ms linear infinite normal forwards}@keyframes ea2blvlhhtg4_tr__tr { 0% {transform: translate(1181.599976px,1180.949951px) rotate(0deg)} 100% {transform: translate(1181.599976px,1180.949951px) rotate(360deg)} }]]></style><g id="ea2blvlhhtg2"><g id="ea2blvlhhtg3"><g id="ea2blvlhhtg4_tr" transform="translate(1181.599976,1180.949951) rotate(0)"><polygon id="ea2blvlhhtg4" points="1181.600000,588.700000 1257.300000,0 1257.200000,593.500000 1407.600000,19.400000 1331.500000,608 1554.100000,57.800000 1403.400000,631.900000 1694.500000,114.600000 1471.600000,664.700000 1826.500000,189 1535.100000,706 1947.900000,279.600000 1592.800000,755.200000 2056.700000,385 1643.700000,811.200000 2151.200000,503.400000 1687.100000,873.300000 2229.700000,633 1722.100000,940.500000 2291,771.500000 1748.200000,1011.600000 2334.100000,916.700000 1765.100000,1085.400000 2358.300000,1066.200000 1772.400000,1160.800000 2363.200000,1217.700000 1769.900000,1236.500000 2348.600000,1368.400000 1757.800000,1311.300000 2314.900000,1516.100000 1736.300000,1383.900000 2262.600000,1658.300000 1705.600000,1453.200000 2192.500000,1792.600000 1666.400000,1517.900000 2105.900000,1916.800000 1619.200000,1577.200000 2004,2029 1564.700000,1629.800000 1888.700000,2127.200000 1504,1675.200000 1761.700000,2209.800000 1438.100000,1712.300000 1625.200000,2275.600000 1367.800000,1740.700000 1481.400000,2323.300000 1294.600000,1759.900000 1332.800000,2352.200000 1219.400000,1769.600000 1181.600000,2361.900000 1143.700000,1769.600000 1030.400000,2352.200000 1068.600000,1759.900000 881.700000,2323.300000 995.300000,1740.700000 737.900000,2275.600000 925.100000,1712.300000 601.500000,2209.800000 859.100000,1675.200000 474.500000,2127.200000 798.400000,1629.800000 359.100000,2029 744,1577.200000 257.300000,1916.800000 696.800000,1517.900000 170.600000,1792.600000 657.500000,1453.200000 100.600000,1658.300000 626.900000,1383.900000 48.300000,1516.100000 605.300000,1311.300000 14.600000,1368.400000 593.200000,1236.500000 0,1217.700000 590.800000,1160.800000 4.900000,1066.200000 598.100000,1085.400000 29,916.700000 614.900000,1011.600000 72.100000,771.500000 641.100000,940.500000 133.400000,633 676.100000,873.300000 212,503.400000 719.500000,811.200000 306.400000,385 770.400000,755.200000 415.200000,279.600000 828,706 536.700000,189 891.500000,664.700000 668.700000,114.600000 959.800000,631.900000 809.100000,57.800000 1031.700000,608 955.600000,19.400000 1106,593.500000 1105.800000,0" transform="translate(-1181.599976,-1180.949951)" fill="rgb(255,255,255)" stroke="none" stroke-width="1"/></g></g></g></svg>