<?xml version="1.0" encoding="utf-8"?>
<!-- Generator: Adobe Illustrator 24.3.0, SVG Export Plug-In . SVG Version: 6.00 Build 0)  -->
<svg version="1.1" id="Layer_1" xmlns="http://www.w3.org/2000/svg" xmlns:xlink="http://www.w3.org/1999/xlink" x="0px" y="0px"
	 viewBox="0 0 256 67" style="enable-background:new 0 0 256 67;" xml:space="preserve">
<style type="text/css">
	.st0{fill:#091C3C;}
</style>
<g>
	<path class="st0" d="M103.5,25.4c0.2,0.3,0.5,0.3,0.9,0.4s0.7,0.1,1.1,0c0.5-0.2,1-0.3,1.3-0.7c0.2-0.2,0.3-0.4,0.5-0.6
		c0.6-0.6,1.1-1.2,1.3-1.9c0-0.1,0.1-0.2,0.1-0.3c0.3-0.6,0.6-1.1,0.4-1.8c0-0.1,0-0.2,0-0.3c-0.1-0.6-0.6-1.5-1.5-1.5
		c-0.1,0-0.1,0-0.2,0c-0.2,0-0.4,0.1-0.7,0.2c-0.4,0.1-0.8,0.2-1.1,0.6c0,0-0.1,0-0.1,0.1c-0.6,0.3-0.9,0.8-1.3,1.3
		c-0.2,0.4-0.7,0.8-0.8,1.3c0,0,0,0,0,0.1c-0.3,0.4-0.3,0.7-0.4,1.1v0.2c-0.1,0.4-0.1,0.7,0.1,1C103.1,25,103.3,25.3,103.5,25.4z"/>
	<path class="st0" d="M100.3,45.1c0.2-0.3,0.4-0.4,0.6-0.6c0.2-0.2,0.4-0.6,0.6-0.7c0,0,0,0,0,0c0.3-0.1,0.4-0.2,0.5-0.5
		c0-0.1,0.2-0.2,0.2-0.3s0.1-0.2,0.2-0.3c0.2-0.2,0.4-0.3,0.6-0.6c0.4-0.4,0.8-0.9,1-1.4c0.3-0.6,0.8-1.1,1.1-1.7
		c0.1-0.2,0-0.4-0.1-0.7c0-0.1-0.1-0.2-0.2-0.2c-0.2-0.1-0.6-0.1-0.7,0.1c0,0,0,0,0,0c-0.1,0.2-0.2,0.4-0.4,0.5
		c-0.1,0.1-0.2,0.1-0.2,0.2c0,0.1-0.1,0.2-0.2,0.4c-0.2,0.2-0.6,0.5-0.6,0.6v0c0,0.2-0.1,0.3-0.1,0.4c-0.2,0.2-0.5,0.6-0.6,0.6
		c0,0,0,0,0,0c-0.4,0.5-0.8,1-1.3,1.5c0,0-0.1,0.2-0.2,0.2c-0.2,0.1-0.4,0.3-0.5,0.5c0,0.1-0.1,0.2-0.2,0.3
		c-0.4,0.3-0.8,0.8-1.3,1.1c-0.5,0.3-0.9,0.6-1.5,0.8c-0.4,0.2-0.5,0.1-0.7-0.3c-0.2-0.4-0.1-0.8,0-1.2c0.1-0.3,0.2-0.6,0.3-0.9
		c0.1-0.3,0.2-0.5,0.2-0.7L97,42c0.4-0.8,0.9-1.5,1.2-2.4c0-0.1,0-0.1,0.1-0.2c0.1-0.1,0.3-0.2,0.4-0.5c0-0.1,0-0.2,0.1-0.2
		c0-0.1,0-0.2,0.1-0.2c0-0.1,0.3-0.3,0.4-0.4c0.2-0.2,0.2-0.5,0.4-0.8c0,0,0.1,0,0.1-0.1c0,0,0.2-0.1,0.2-0.2
		c0.2-0.5,0.5-0.8,0.8-1.2c0.4-0.6,1-1.3,1.4-1.9c0.4-0.7,1-1.4,1.4-2c0.2-0.3,0.3-0.6,0.5-0.9c0.4-0.4,0.6-1,0.9-1.5
		c0.2-0.2,0-0.5-0.2-0.5c-0.4,0.1-0.8-0.1-1.2,0c-0.4,0.1-0.9,0-1.4,0c-0.3,0-0.5,0-0.8,0c-0.4,0-0.9,0.3-1.3,0.2
		c-0.3,0-0.5,0-0.7,0c-0.2,0-0.4,0.2-0.3,0.4c0,0.2,0,0.4-0.2,0.5c-0.2,0.2-0.2,0.4-0.2,0.6c0,0.2,0,0.4-0.2,0.6
		c-0.2,0.1-0.4,0.3-0.4,0.5c0,0.2-0.1,0.3-0.2,0.4c-0.3,0.4-0.6,0.7-0.9,1.1c-0.2,0.4-0.5,0.6-0.7,0.9c-0.1,0.4-0.3,0.7-0.6,0.9
		c-0.3,0.4-0.5,0.8-0.8,1.2c-0.2,0.3-0.4,0.5-0.5,0.8c-0.2,0.3-0.4,0.6-0.5,0.8c0,0,0,0,0,0c-0.1,0-0.2,0-0.3,0.1c0,0-0.1,0-0.2,0.1
		c-0.3,0.2-0.4,0.4-0.5,0.6c-0.1,0.1-0.1,0.1-0.2,0.2c-0.2,0.2-0.3,0.4-0.5,0.6c-0.2,0.4-0.5,0.8-0.8,1.1c-0.6,0.6-1,1.4-1.7,1.9
		l-0.1,0.1C89.5,42.7,89.3,43,89,43c0,0-0.1,0.1-0.2,0.2c-0.1,0.2-0.2,0.4-0.3,0.6C88.2,44,88,44,88,44.1l0,0
		c-0.1,0.2-0.3,0.4-0.5,0.5c-0.3,0.2-0.5,0.2-0.6,0.2c0,0-0.1,0-0.1,0.1c-0.2,0.2-0.5,0.3-0.8,0.3c-0.4,0-0.6-0.3-0.6-0.7
		c0-0.2,0.1-0.4,0-0.6c0-0.4,0.1-0.8,0.3-1.1c0.1-0.3,0.2-0.7,0.4-1c0.2-0.4,0.4-0.9,0.6-1.3c0.4-0.6,0.8-1.4,1.3-2
		c0.4-0.6,0.8-1.3,1.3-1.9c0.4-0.6,0.6-1.2,1.1-1.7c0,0,0.1-0.1,0.1-0.2c0.2-0.6,0.4-1.3,0.6-1.9v0c0.2-0.6,0-1.3,0-1.9
		c0-0.2,0-0.3-0.1-0.5c-0.2-0.5-0.5-1-0.8-1.5c-0.1-0.2-0.2-0.2-0.4-0.3c-0.6-0.1-1.1-0.3-1.7-0.3c-0.5,0-1-0.2-1.5-0.1
		c-0.3,0-0.4,0.2-0.4,0.2h0c-0.9,0.2-1.7,0.6-2.4,1.1c-0.8,0.6-1.5,1.3-2.2,2.1c-0.2,0.3-0.3,0.4-0.4,0.6c-0.1,0-0.1,0.1-0.2,0
		c-0.1,0,0-0.2,0-0.4c0-0.2,0-0.4,0-0.5v-0.1c0-0.2,0.1-0.5,0-0.8c0-0.1-0.1-0.2-0.2-0.4c-0.2-0.3-0.4-0.6-0.7-0.9
		c-0.2-0.1-0.6-0.3-0.8-0.4c-0.4-0.1-0.7-0.2-1.2-0.2c-0.7,0-1.4,0.2-2,0.6c-0.4,0.3-0.8,0.6-1.3,0.9c-0.3,0.2-0.6,0.4-0.9,0.6
		c-0.7,0.6-1.3,1.2-1.9,1.9c-0.2,0.1-0.3,0.2-0.4,0.4c-0.2,0.2-0.4,0.3-0.4,0.4c0,0,0,0-0.1,0c-0.1,0,0-0.1,0-0.2l0.8-1.4l0,0
		c0.2-0.2,0.3-0.4,0.3-0.6c0-0.2,0.1-0.4,0.3-0.5c0.2-0.1,0.3-0.3,0.4-0.5c0-0.2,0.1-0.3,0.3-0.5c0.2-0.2,0.3-0.4,0.4-0.7
		c0-0.2-0.1-0.3-0.3-0.3c-0.3,0-0.7,0-1,0c-0.4,0.1-0.8,0.1-1.2,0.2c-0.6,0.2-1.3,0-1.9,0h-0.6h-0.1c-0.4,0-0.7,0-0.9,0.4
		c-0.2,0.2-0.4,0.4-0.5,0.7c-0.2,0.3-0.3,0.6-0.5,0.8c-0.4,0.7-0.9,1.4-1.3,2.1c-0.4,0.7-0.7,1.4-1.3,2L63.9,35
		c0,0.4-0.3,0.8-0.5,1.1c-0.5,0.9-0.9,1.8-1.6,2.5l-0.2,0.2c-0.4,0.9-1.1,1.7-1.6,2.6c-0.2,0.4-0.4,0.8-0.7,1.2
		c-0.2,0.1-0.4,0.2-0.4,0.2h-0.1c-0.1,0-0.2,0-0.2,0c0-0.1,0-0.1,0.1-0.2c0.3-0.3,0.6-0.6,0.7-1l0.4-0.6C60,41,60,40.9,60,40.8
		c0.2-0.5,0.6-1,0.6-1.6c0,0,0-0.1,0-0.1c0.4-0.6,0.6-1.4,0.8-2.1c0.2-0.8,0.5-1.7,0.4-2.5c0,0,0-0.1,0-0.1c0.1-0.8-0.1-1.6-0.2-2.3
		c-0.1-0.3-0.4-0.4-0.4-0.8c-0.1-0.5-0.4-0.9-0.8-1.3c-0.2-0.2-0.5-0.5-0.9-0.6c-0.3-0.1-0.6-0.2-0.9-0.3c-0.6-0.2-1.1-0.4-1.7-0.4
		c-0.6,0-1.2,0-1.8,0c-0.5,0-0.9,0.2-1.3,0.2C53.6,28.8,53.3,29,53,29c-0.1,0-0.3,0-0.4,0.1c-0.3,0.1-0.6,0.2-0.9,0.4
		c-0.4,0.2-0.7,0.4-1.1,0.4L50.3,30c-0.2,0.2-0.5,0.4-0.8,0.5L49,30.9c-0.1,0-0.2,0.1-0.2,0.1c-0.3,0-0.5,0.2-0.6,0.4
		c0,0.1-0.1,0.2-0.2,0.2c-0.4,0.2-0.8,0.6-1.1,0.8c-0.6,0.4-1,1.1-1.7,1.5c-0.2,0.6-0.8,0.8-0.9,1.4l-0.4,0.3c0,0-0.1,0.1-0.1,0.1
		c-0.2,0.4-0.5,0.8-0.7,1.2c-0.1,0.3-0.3,0.6-0.4,0.9c0,0-0.1,0-0.1,0c-0.3,0-0.6,0.2-0.8,0.4c0,0.2-0.3,0.5-0.4,0.6
		c-0.5,0.4-1,1.3-1.5,1.6c0,0,0,0,0,0c-0.4,0.6-1,0.8-1.4,1.3c0,0,0,0-0.1,0c-0.4,0.3-0.6,0.7-1.1,0.8c-0.1,0-0.1,0.1-0.1,0.1
		c-0.2,0.3-0.4,0.4-0.7,0.5c-0.1,0-0.2,0.1-0.3,0.2c-0.6,0.5-1.3,0.9-1.9,1.2c-0.7,0.3-1.3,0.7-2,1c-0.6,0.2-1.2,0.5-1.8,0.8
		c-0.2,0-0.4,0-0.7,0c-0.3,0-0.6,0.2-0.9,0.3c0,0-0.1,0-0.2,0L27,47.3l-0.7,0.1c-0.4,0-0.6-0.1-0.8-0.1c-0.1,0-0.2,0-0.3,0.1
		c-0.2,0.1-0.4,0.1-0.5,0c-0.3-0.2-0.7-0.1-1-0.2c-0.6,0-1.2-0.1-1.8-0.3c-0.7-0.3-1.5-0.8-2.1-1.3c-1-0.9-1.5-2-1.8-3.2
		c-0.2-1.1-0.3-2.1-0.2-3.3c0-1.1,0.2-2.3,0.3-3.5c0-0.4,0.2-0.9,0.2-1.4c0-0.3,0.1-0.6,0.2-0.8c0.1-0.1,0.1-0.2,0.1-0.4
		c0.2-0.5,0.1-1,0.3-1.4c0.2-0.4,0.4-0.9,0.5-1.5c0.1-0.2,0.1-0.5,0.3-0.7c0.1-0.2,0.2-0.4,0.3-0.6c0.1-0.4,0.2-0.5,0.2-0.6l0.1-0.2
		c0.2,0,0.5-0.1,0.8,0c0,0,0.1,0,0.2,0c0.4,0.1,0.6,0,1,0c0.7,0,1.4,0.2,2.1,0.1c0.3,0,0.6,0.1,0.9,0.1c0.5-0.1,1-0.1,1.6-0.1
		c0.3,0,0.6,0,0.9-0.1c0.2,0,0.4-0.1,0.6-0.1c0.6,0,1.1-0.2,1.7-0.1c0.1,0,0.2,0,0.3-0.1c0.4-0.2,0.7-0.2,1.1-0.2
		c0.5,0,0.9-0.1,1.3-0.3c0.2-0.1,0.4-0.1,0.6-0.1c0.3,0,0.7-0.1,1-0.2c0.4,0,0.8-0.1,1.1-0.2c0.3-0.1,0.4-0.2,0.5-0.2h0
		c0.9,0,1.7-0.4,2.5-0.7c0.7-0.2,1.3-0.5,1.9-0.8c0.5-0.2,0.9-0.5,1.3-0.7c0.3-0.1,0.4-0.2,0.5-0.2c0.3-0.3,0.8-0.5,1.2-0.7
		c0.2-0.2,0.3-0.2,0.4-0.4c0.2-0.2,0.4-0.3,0.6-0.4c0.2-0.1,0.5-0.2,0.7-0.4c0.2-0.4,0.5-0.6,0.8-0.8c0.5-0.3,0.8-0.8,1.3-1.1
		c0.1-0.1,0.1-0.2,0.1-0.2c0.2-0.2,0.3-0.4,0.6-0.6c0.4-0.4,0.8-0.8,1-1.2c0.2-0.2,0.3-0.4,0.4-0.6c0.2-0.4,0.2-0.5,0.2-0.6
		c0-0.1,0.2-0.2,0.4-0.5c0.1-0.2,0.2-0.5,0.4-0.8c0.2-0.4,0.3-0.9,0.5-1.3C51,14.3,51,14,51,13.8c0-0.1,0-0.2,0-0.4
		c0.1-0.4,0.1-0.8,0.1-1.2c0-0.2,0-0.3,0-0.4c0.1-0.3,0.2-0.7,0.1-1.1c-0.1-0.4-0.3-0.5-0.3-0.6V9.9c0.1-0.4,0-0.7-0.2-1.1
		c-0.4-1-1.1-1.8-1.9-2.4c-1.1-0.8-2.3-1.2-3.6-1.4c-1.1-0.2-2.1-0.4-3.2-0.2c-0.4,0.1-0.8,0.1-1.2,0.1c-0.6,0-1.3,0.1-1.9,0.2
		c-0.2,0-0.4,0-0.6,0.1c-0.3,0.2-0.7,0.2-1.1,0.2H37c-0.4,0.1-0.5,0.2-0.6,0.2l-0.2,0.1C35.1,6.2,34.1,6.6,33,7
		c-0.4,0.2-0.6,0.4-1,0.5c-0.8,0.3-1.5,0.8-2.3,1.2c-0.6,0.4-1.3,0.6-1.8,1.1c-0.1,0.1-0.3,0.1-0.4,0.2c-0.1,0-0.3,0.1-0.4,0.2
		c-0.3,0.4-1,0.6-1.3,1.1c-0.1,0.1-0.2,0.2-0.4,0.2c-0.2,0.1-0.4,0.2-0.5,0.3c-0.1,0.4-0.3,0.5-0.6,0.7c-0.1,0-0.2,0.2-0.3,0.2
		c-0.2,0.2-0.4,0.4-0.6,0.6c-0.4,0.3-0.7,0.7-1.1,1c0,0,0,0,0,0.1c-0.1,0.2-0.3,0.4-0.5,0.5l-0.1,0.1c-0.3,0.2-0.4,0.5-0.6,0.8
		c-0.2,0.3-0.5,0.6-0.8,0.8c-0.3,0.2-0.6,0.5-0.8,0.8c-0.8,1-1.5,2-2.2,3c-0.2,0.3-0.4,0.6-0.6,0.9c-0.2,0.5-0.5,0.6-1.1,0.4
		c-0.5-0.2-1.1-0.4-1.6-0.8c-0.1-0.1-0.4-0.2-0.6-0.2l-0.6-0.2c-1-0.5-1.8-1.3-2.6-1.9C9.4,17.9,8.9,17,8.5,16
		c-0.1-0.1-0.1-0.2-0.2-0.4c-0.4-0.8-0.5-1.7-0.5-2.5c0-0.4,0.1-0.9,0.4-1.3c0.6-0.6,1.2-1.1,1.9-1.3c0.2-0.1,0.6-0.2,0.9-0.2
		c1,0,2-0.1,3,0.5c0.1,0,0.1,0,0.2,0c0.6,0.1,1,0.4,1.4,0.9c0.2,0.2,0.4,0.3,0.6,0.3c0.4,0,0.8-0.1,1.1-0.4c0.2-0.3,0.2-0.5,0.2-0.6
		c0,0,0-0.1,0-0.1c0.1-0.3,0.1-0.5,0-0.7c-0.1-0.3-0.3-0.4-0.5-0.6c-0.1,0-0.2-0.1-0.2-0.2c-0.3-0.3-0.6-0.6-1.1-0.7
		C15,8.2,14.2,8,13.3,7.9c-1-0.1-1.9,0-2.9,0.2C10,8.2,9.5,8.4,9.1,8.5c-0.2,0-0.3,0.1-0.4,0.2L8.3,8.9C8,9,7.8,9.2,7.5,9.4
		C7.3,9.6,7.1,9.8,6.8,9.9L6.7,10c-0.3,0.4-0.6,0.7-0.8,1c-0.4,0.5-0.6,1-0.8,1.6c-0.1,0.6-0.4,1.1-0.4,1.7c0,0,0,0.1-0.1,0.1
		c-0.2,0.3-0.2,0.6-0.1,1.1c0.2,0.7,0.1,1.6,0.5,2.3c0,0,0,0.1,0,0.2c0,0.3,0.1,0.6,0.3,0.8c0.4,0.6,0.7,1.3,1.3,1.9
		c0.1,0.1,0.1,0.2,0.2,0.3c0.2,0.3,0.4,0.6,0.6,0.8c0.4,0.2,0.6,0.5,0.9,0.8C8.6,22.8,8.8,23,9,23.1c0.2,0.1,0.4,0.3,0.6,0.5
		c0.8,0.5,1.5,1.1,2.3,1.5c0.6,0.3,1.1,0.8,1.8,1c0.2,0.1,0.3,0.2,0.2,0.4c-0.1,0.2-0.3,0.4-0.4,0.7c0,0.2-0.1,0.4-0.2,0.6
		c-0.2,0.4-0.4,1-0.6,1.4c-0.3,0.6-0.6,1.1-0.7,1.8c-0.2,0.8-0.7,1.6-0.8,2.5c0,0.1,0,0.2-0.1,0.2c-0.2,0.6-0.3,1.3-0.4,1.9
		c-0.1,0.6-0.3,1.3-0.2,1.9c0,0.1,0,0.2-0.1,0.3c-0.2,0.6,0,1.3-0.2,1.9c0,0,0,0.1,0,0.2v0.1c0,0.3-0.1,0.5-0.1,0.7
		c0,0.1,0,0.2,0,0.2c0.1,0.5,0.2,0.9,0.2,1.4c0,0.6,0.2,1.2,0.3,1.8c0.1,0.8,0.3,1.6,0.6,2.3c0.3,0.6,0.6,1.3,1.1,2
		c0.4,0.5,0.8,1,1.2,1.5c0.2,0.5,0.8,0.8,1.2,1.1c0,0,0.1,0,0.2,0.1c0.2,0,0.4,0.2,0.6,0.3c0.5,0.3,1,0.6,1.6,0.8
		c0.5,0.3,1.1,0.3,1.6,0.6h0.1c0.8,0,1.6,0,2.3,0.1c0.2,0,0.4,0,0.6,0c0.8,0,1.5-0.2,2.3-0.4c0.7-0.2,1.5-0.3,2.2-0.6
		c0.6-0.2,1.1-0.4,1.7-0.5l0,0c0.5-0.4,1.2-0.4,1.8-0.8c0.4-0.4,1.1-0.5,1.5-0.8c0.1-0.1,0.3-0.1,0.4-0.2c0.1,0,0.2-0.1,0.4-0.2
		c0.3-0.2,0.4-0.4,0.5-0.4c0.1,0,0.1,0,0.2-0.1c0.4-0.1,0.8-0.4,1.2-0.7c1.1-0.6,2-1.4,3-2.2c0.3-0.3,0.6-0.7,1-1
		c0.2-0.2,0.4-0.3,0.4-0.4c0,0,0.1-0.1,0.1-0.1c0.6-0.7,1.3-1.5,2-2.1c0.4-0.4,0.8-1,1.3-1.6c0,0.4-0.1,0.7-0.2,1.1
		c-0.1,0.4-0.2,0.5-0.2,0.6v0.1v0.8c0,0.6,0,1.2,0.1,1.7c0.2,0.7,0.3,1.4,0.6,2.1c0.4,0.9,0.9,1.8,2,2.1c1.1,0.3,2.1,0.6,3.2,0.2
		c0.1,0,0.2,0,0.4,0c0.3,0,0.6,0,0.8-0.1c0.5-0.2,1.1-0.2,1.6-0.4c0.6-0.2,1.1-0.4,1.5-0.6c0.2-0.1,0.4-0.2,0.6-0.3
		c0.2,0,0.4-0.1,0.5-0.3c0,0,0.1-0.1,0.1-0.1c0.3-0.2,0.5-0.2,0.7-0.3c0.1,0,0.2-0.1,0.3-0.2c0.6-0.5,1.2-0.9,1.8-1.3
		c0.2-0.2,0.4-0.4,0.6-0.6c0.2-0.2,0.4-0.5,0.7-0.5c0.5,0,0.9,0,1.3-0.1c0,0,0,0,0,0.1l-0.1,0.2c-0.1,0.3-0.3,0.5-0.5,0.8
		c-0.2,0.2-0.1,0.6-0.4,0.8c0,0,0,0,0,0.1c-0.3,0.6-0.7,1.2-1,1.8c-0.1,0.3,0.1,0.6,0.4,0.6c0.6-0.1,1.2,0,1.7,0.1
		c0.9,0.1,1.8,0.1,2.7,0.1c0.2,0,0.4,0,0.6-0.1c0.3-0.2,0.4-0.5,0.6-0.8c0.1-0.2,0.2-0.4,0.2-0.6c0.2-0.3,0.4-0.6,0.6-1
		c0.1-0.1,0.2-0.2,0.2-0.3c0.2-0.6,0.5-1.1,0.8-1.6c0.2-0.3,0.4-0.6,0.5-0.9c0.4-0.9,0.9-1.7,1.4-2.5c0.5-0.8,1.2-1.7,1.7-2.5
		c0-0.1,0.2-0.2,0.3-0.2c0.2-0.1,0.3-0.2,0.4-0.5c0-0.2,0.2-0.4,0.3-0.5c0.4-0.4,0.8-1,1.3-1.4c0.4-0.4,0.9-0.9,1.3-1.4
		c0.1-0.2,0.3-0.3,0.5-0.4c0.4-0.3,0.7-0.6,1-0.9c0,0,0.1-0.1,0.2-0.1c0.3-0.2,0.6-0.4,0.8-0.6c0.4-0.4,0.9-0.7,1.5-0.6
		c0.3,0,0.4,0.1,0.5,0.4c0,0.2,0,0.4-0.1,0.5c-0.1,0.3-0.3,0.6-0.4,0.8c-0.2,0.6-0.6,1.2-0.9,1.8c-0.4,0.7-0.8,1.5-1.3,2.2
		c0,0.1-0.1,0.1-0.1,0.2c0,0.3-0.2,0.5-0.4,0.6c-0.2,0.1-0.3,0.3-0.3,0.6c0,0.2-0.1,0.3-0.2,0.4c-0.4,0.4-0.6,1-0.9,1.5
		c-0.5,0.8-1,1.6-1.4,2.4c-0.2,0.4-0.4,0.8-0.7,1.1c-0.6,0.7-0.9,1.7-1.4,2.5l-0.1,0.1c0,0.3-0.2,0.5-0.4,0.6
		c-0.2,0.2-0.2,0.4-0.2,0.6c0,0.1,0,0.2,0.1,0.2c0.4,0,0.7,0.2,1.1,0.1c0.1,0,0.2,0,0.4,0c0.4,0,0.7,0,1.1,0c0.2,0,0.5-0.1,0.8,0
		c0.6,0.1,1.3,0,1.9,0c0.3,0,0.5-0.2,0.7-0.5l0.4-0.6c0.3-0.6,0.7-1.2,0.9-1.8c0-0.1,0.1-0.2,0.2-0.3c0.4-0.4,0.6-1,0.8-1.5
		c0.2-0.5,0.6-0.9,0.9-1.3c0.3-0.5,0.6-1.1,1-1.6v0c0.2-0.4,0.4-0.8,0.7-1.2l1.3-2.2c0.3-0.6,0.5-1.2,0.8-1.7
		c0.2-0.3,0.5-0.4,0.6-0.7c0.2-0.5,0.6-0.8,0.9-1.2c0.5-0.6,1-1.2,1.6-1.7c0.6-0.5,1.3-0.9,2-1.2c0.5-0.2,1,0.1,1.1,0.7
		c0,0.1,0,0.3-0.1,0.4c-0.1,0.2-0.1,0.4-0.2,0.6c0,0.2-0.2,0.4-0.4,0.6c-0.2,0.2-0.3,0.4-0.4,0.6c0,0.1,0,0.2-0.1,0.3
		c-0.4,0.5-0.7,1-1,1.5c0,0.1-0.1,0.2-0.2,0.3c-0.2,0.4-0.5,0.8-0.8,1.3c-0.2,0.3-0.3,0.4-0.4,0.6l-0.1,0.2c-0.2,0.4-0.5,0.6-0.6,1
		c-0.3,0.8-0.8,1.5-1.1,2.3c-0.2,0.5-0.5,1.1-0.6,1.7c-0.1,0.2-0.2,0.4-0.3,0.7c0,0.1,0,0.2-0.1,0.4c-0.2,1.1-0.2,2.1,0.2,3.2
		c0,0,0,0.1,0,0.2c0.1,0.2,0.1,0.3,0.2,0.5c0.2,0.3,0.4,0.4,0.5,0.4l0.1,0.1c0.3,0.3,0.6,0.5,1.1,0.4c0.2,0,0.4,0,0.5-0.1
		c0.5-0.2,1.1-0.2,1.7-0.4c0.4-0.2,0.9-0.2,1.4-0.5c1.1-0.6,2.1-1.2,2.9-2.1c0,0,0.1-0.1,0.2-0.1c0.5-0.4,1.1-0.8,1.5-1.3
		c0.3-0.4,0.6-0.7,0.9-1.1c-0.1,0.4-0.2,0.8-0.3,1.2c-0.2,0.5,0,1.1-0.2,1.6c0,0,0,0.1,0,0.2c0.1,0.4,0.1,0.7,0.2,1.1
		c0.1,0.3,0.3,0.7,0.5,0.9c0.7,0.7,1.1,1,2,1c0.4,0,0.8-0.1,1.3-0.3c0.9-0.4,1.9-0.8,2.7-1.5c0.2-0.2,1-0.8,1.1-1
		c0.1-0.2,0.2-0.4,0.4-0.5c0.3-0.1,0.9-0.6,1-0.9L100.3,45.1z M22.7,23.5c0-0.1,0-0.1,0.1-0.1c0.3-0.2,0.4-0.5,0.6-0.7
		c0.5-0.6,0.8-1.4,1.3-2c0.1-0.1,0.2-0.2,0.3-0.4c0.3-0.4,0.6-0.7,0.8-1.2c0.2-0.3,0.4-0.6,0.7-0.8c0.6-0.3,0.9-1,1.3-1.5
		c0.4-0.6,0.9-1.1,1.5-1.6c0.4-0.3,0.8-0.7,1.1-1.1c0.8-0.8,1.8-1.6,2.7-2.3c0.5-0.4,1.1-0.7,1.6-1.1c0.3-0.2,0.4-0.2,0.6-0.3
		l0.1-0.1c0.2-0.2,0.4-0.3,0.7-0.4c0.2,0,0.4-0.2,0.6-0.3c0.1-0.2,0.3-0.2,0.5-0.3c0.6-0.3,1.1-0.6,1.8-0.8c0.1,0,0.2-0.1,0.4-0.2
		c0.4-0.2,0.8-0.4,1.3-0.4c0.5-0.1,1.1-0.2,1.6-0.2c0.2,0,0.5,0,0.8-0.1l0.6-0.1h0.1c0.8,0.1,1.7,0,2.5,0.2c0.1,0,0.2,0,0.4,0
		c1,0.1,1.7,0.6,2.1,1.5c0.5,0.9,0.6,1.8,0.6,3c0.1,0.7-0.2,1.5-0.4,2.3c-0.1,0.3-0.2,0.6-0.4,0.9c-0.3,0.5-0.6,1.1-0.8,1.7
		c-0.2,0.3-0.3,0.5-0.4,0.6L47,17.8c-0.2,0.2-0.4,0.4-0.7,0.6c-0.2,0.3-0.3,0.4-0.4,0.4c-0.1,0.1-0.2,0.1-0.5,0.3
		c-0.3,0.2-0.6,0.4-0.8,0.7c-0.3,0.4-0.7,0.6-1.1,0.9c-0.2,0.2-0.4,0.3-0.8,0.4c-0.3,0-0.6,0.2-0.8,0.4c-0.2,0.2-0.5,0.3-0.8,0.4
		c-0.8,0.2-1.6,0.4-2.4,0.8c-0.1,0-0.2,0-0.3,0c-0.1,0-0.3,0-0.3,0.1c-0.3,0.4-0.7,0.2-1.1,0.3c-0.8,0.2-1.7,0.2-2.6,0.4l-0.4,0.1h0
		C33,24,32.2,23.9,31.4,24c-0.1,0-0.2,0-0.3,0c-1.1-0.2-2.3,0-3.4,0.1c-0.2,0-0.5,0-0.7,0c-0.3,0-0.6-0.1-0.9-0.1
		c-0.6,0-1.3-0.1-1.9-0.2c-0.2,0-0.3,0-0.4,0c-0.2,0-0.6,0-0.8,0C22.8,23.6,22.7,23.5,22.7,23.5z M52.3,43.6
		c-0.2,0.1-0.4,0.3-0.5,0.4c0,0-0.1,0.1-0.1,0.2c-0.1,0.3-0.3,0.4-0.5,0.6c-0.2,0.1-0.4,0.3-0.4,0.5c-0.1,0.1-0.4,0.3-0.6,0.5
		l-0.4,0.4c0,0,0,0-0.1,0c-0.6,0.2-1.1,0.7-1.8,0.9c-0.3,0.1-0.6,0.1-1,0.1c-0.3,0-0.7,0-1.1-0.2c-0.6-0.3-0.7-0.8-0.7-1.4
		c0-0.4,0.1-0.7,0.1-1.1c0.1-0.6,0.2-1.1,0.4-1.7c0.2-0.6,0.4-1.3,0.8-1.9c0.3-0.5,0.5-1.1,0.9-1.5c0.2-0.2,0.4-0.5,0.5-0.8
		c0.6-0.9,1.3-1.7,2-2.4c0.1-0.1,0.2-0.2,0.2-0.2h0c0,0,0,0.1,0,0.1c-0.2,0.4,0,0.8-0.1,1.3v0.2c0,0.4,0.1,0.8,0.2,1.3
		c0.1,0.4,0.3,0.8,0.4,1.3c0.3,1.1,1,2,1.8,2.7C52.5,43.1,52.5,43.4,52.3,43.6z M57.7,33c0,0.2,0,0.5-0.1,0.7c0,0.1,0,0.2,0,0.2
		c-0.2,0.3-0.3,0.6-0.4,1c0,0.3-0.2,0.6-0.3,0.8c-0.3,0.5-0.5,1-0.7,1.5c-0.3,0.8-0.7,1.5-1.2,2.1c-0.2,0.3-0.5,0.6-0.7,1
		c-0.2,0.3-0.3,0.4-0.3,0.5c0,0,0,0,0,0.1c-0.1,0.2-0.2,0.2-0.3,0c-0.1-0.1-0.2-0.2-0.3-0.4c-0.2-0.3-0.4-0.6-0.6-1
		c-0.2-0.3-0.3-0.4-0.4-0.6c0-0.1,0-0.2,0-0.2c0-0.2-0.1-0.4-0.2-0.5c-0.1-0.4-0.2-0.7-0.1-1.1c0-0.3,0-0.6,0.1-0.8
		c0.2-1.1,0.5-2.3,1.3-3.2c0.2-0.2,0.4-0.5,0.7-0.6c0.4-0.2,0.8-0.6,1.3-0.7c0.3-0.1,0.6-0.1,0.8-0.3c0.3-0.2,0.9,0,1.1,0.4
		C57.7,32.2,57.8,32.6,57.7,33z"/>
	<path class="st0" d="M148.1,29.7c-0.6,0-1.3-0.1-1.9-0.1c-0.6,0-1.3-0.2-1.9,0c-0.3,0.1-0.5,0.2-0.7,0.2c-0.1,0-0.2,0.1-0.2,0.1
		c-0.2,0.1-0.2,0.4-0.4,0.7l-0.1,0.1c-0.1,0.1-0.2,0.1-0.3,0c-0.1-0.1-0.2-0.2-0.2-0.4c-0.2-0.3-0.4-0.4-0.6-0.6
		c-0.4-0.3-0.8-0.7-1.4-0.8h0c-0.3-0.1-0.6-0.2-0.8-0.1c-0.7,0-1.3,0-1.9,0.2c-0.7,0.2-1.3,0.2-1.8,0.6c0,0,0,0-0.1,0
		c-0.1,0-0.2,0-0.6,0.2c-0.4,0.2-0.6,0.3-1,0.5c-0.3,0.2-0.6,0.4-0.8,0.6c-0.2,0.2-0.4,0.3-0.6,0.4c-0.4,0.2-0.7,0.4-1,0.6
		c-0.4,0.4-0.9,0.8-1.3,1.2c-0.2,0.1-0.3,0.3-0.4,0.4c-0.2,0.3-0.4,0.5-0.6,0.8c-0.4,0.2-0.7,0.6-0.9,1c-0.3,0.5-0.7,0.8-1,1.3
		c-0.3,0.5-0.6,1-0.9,1.5c-0.2,0.1-0.4,0.2-0.6,0.4c-0.3,0.4-0.6,0.7-0.8,1.1c-0.5,0.6-1,1.4-1.6,2c-0.3,0.3-0.5,0.6-0.8,0.9
		c-0.3,0.3-0.5,0.6-0.9,0.9c0,0-0.1,0.1-0.1,0.2c-0.2,0.3-0.3,0.5-0.6,0.6c-0.2,0.1-0.3,0.2-0.4,0.4c-0.1,0.2-0.2,0.3-0.4,0.4
		c-0.2,0.1-0.4,0.2-0.5,0.4c-0.1,0.2-0.3,0.3-0.5,0.4c-0.4,0.1-0.6,0.2-0.7,0.1c0,0-0.1,0-0.1-0.1c-0.2-0.3-0.5-0.6-0.3-1.1l0.2-0.9
		c0-0.2,0.1-0.5,0.2-0.7c0.2-0.4,0.4-0.8,0.6-1.3c0.3-0.7,0.7-1.3,1.1-1.9c0.2-0.4,0.6-0.8,0.8-1.3c0.3-0.5,0.6-1.1,1-1.5
		c0.3-0.4,0.5-0.9,0.8-1.3c0.2-0.3,0.4-0.6,0.5-0.9c0.4-1,0.7-2,0.6-3.1c0-0.1,0-0.1,0-0.2c0.1-0.3,0-0.5,0-0.8
		c-0.1-0.3-0.2-0.5-0.4-0.8c-0.1-0.2-0.2-0.3-0.3-0.5c-0.2-0.3-0.4-0.4-0.8-0.5c-0.2-0.1-0.4-0.1-0.6-0.1c-0.2-0.1-0.5-0.2-0.6-0.2
		c-0.2,0-0.4,0.1-0.6,0.1h-0.3c-0.5,0-0.9,0.1-1.3,0.4c-0.8,0.5-1.7,1-2.4,1.7l-0.5,0.4c-0.2,0.2-0.4,0.4-0.7,0.6c0,0-0.1,0.1-0.1,0
		c-0.1,0,0-0.1,0-0.2c0,0,0-0.1,0-0.1c0.4-0.5,0.6-1.1,1-1.7c0.1-0.1,0.1-0.3,0.1-0.4c0-0.1,0-0.2-0.2-0.2c-0.4,0-0.8-0.2-1.1-0.2
		c-0.4,0-0.8-0.1-1.1-0.1c-0.4,0-0.7-0.1-1.1-0.1c-0.5,0-1.1,0.1-1.6,0H111c-0.3,0-0.5,0.1-0.7,0.2c-0.2,0.2,0,0.3,0,0.5
		c0,0.1,0,0.2-0.1,0.5c0,0.5-0.1,1.1-0.6,1.4c0,0-0.1,0.1-0.1,0.2c-0.3,0.7-0.7,1.4-1.2,2l-0.2,0.2c-0.2,0.3-0.2,0.6-0.3,0.9
		l-0.4,0.6l-0.4,0.7c-0.6,1.1-1.1,2.1-1.7,3.1c-0.2,0.4-0.5,0.8-0.7,1.3c-0.3,0.4-0.6,0.9-0.8,1.3c-0.2,0.3-0.2,0.5-0.3,0.6
		c0,0,0,0.1-0.1,0.1c-0.4,0.4-0.6,1.1-1,1.6c-0.2,0.3-0.3,0.7-0.6,1c-0.4,0.5-0.7,1.1-1,1.7c-0.3,0.5-0.5,1.1-0.9,1.6
		c-0.2,0.2-0.2,0.4-0.3,0.7c0,0.1,0,0.2,0.1,0.2c0.2,0,0.5,0.2,0.8,0.1c0.8-0.1,1.6-0.1,2.3-0.1c0.6,0,1.3,0.1,1.9,0
		c0.2,0,0.4-0.1,0.6-0.3c0.4-0.5,0.6-1.1,1-1.7c0.1-0.2,0.2-0.4,0.3-0.6c0.1-0.1,0.1-0.2,0.2-0.4c0.2-0.5,0.5-0.9,0.7-1.4
		c0.1-0.2,0.3-0.5,0.4-0.8c0.1-0.2,0.3-0.5,0.4-0.7c0.4-0.5,0.8-1,1.1-1.5c0.2-0.3,0.3-0.7,0.5-1c0.4-0.7,0.9-1.3,1.2-2
		c0-0.1,0.1-0.2,0.2-0.2c0.2-0.2,0.4-0.4,0.6-0.7c0.5-0.6,0.8-1.3,1.5-1.9l0.1-0.1c0.2-0.3,0.2-0.5,0.3-0.7c0-0.1,0.1-0.2,0.2-0.2
		c0.2-0.1,0.4-0.3,0.5-0.6c0-0.1,0.2-0.2,0.3-0.3c0.4-0.2,0.6-0.6,0.9-1c0.4-0.4,0.8-0.6,1.2-0.8c0.3-0.2,0.7-0.3,1.1-0.4
		c0.3-0.1,0.5,0,0.5,0.3c0,0.5,0,1-0.3,1.4c-0.4,0.5-0.5,1.1-0.9,1.5c-0.3,0.4-0.7,0.9-0.9,1.4c0,0.1-0.1,0.2-0.2,0.3
		c-0.2,0.3-0.2,0.4-0.3,0.5c0,0,0,0.1-0.1,0.1c-0.3,0.2-0.4,0.5-0.5,0.8c0,0.2-0.2,0.3-0.2,0.4c-0.1,0.1-0.2,0.2-0.3,0.4l-0.8,1.5
		l-0.8,1.9c-0.2,0.3-0.3,0.7-0.4,1.1c-0.3,0.5-0.2,1.2-0.5,1.7v0.1c0,0.3,0,0.6,0,0.9c0,0.6,0.1,1.3,0.4,1.9c0.4,0.9,1.1,1.3,2,1.6
		c0.6,0.2,1.2,0.1,1.8-0.1c0.2-0.1,0.5-0.2,0.8-0.3c0.8-0.4,1.5-0.9,2.2-1.5c0.1-0.1,0.3-0.3,0.4-0.4c0.6-0.5,1.2-1,1.7-1.6
		c0.8-0.8,1.5-1.8,2.5-2.5c0.1-0.1,0.2-0.1,0.2-0.2c-0.1,0.4-0.1,0.8-0.2,1.2c0,0.5-0.1,1,0,1.5c0.2,0.8,0.4,1.7,0.9,2.4
		c0.3,0.5,0.8,0.9,1.3,1.2c0.3,0.1,0.6,0.1,0.9,0.2c0.4,0,0.6,0.1,0.7,0.1c0.1,0,0.2,0,0.3,0c0.6,0,1.1-0.1,1.5-0.4
		c0.1-0.1,0.2-0.1,0.3-0.2c0.9-0.2,1.5-0.9,2.1-1.6c0.2-0.2,0.5-0.4,0.8-0.7c0,0,0,0,0.1,0c0,0,0,0,0,0.1c-0.2,0.2-0.4,0.4-0.5,0.7
		c-0.3,0.6-0.8,1.1-1.1,1.9c0,0,0,0,0,0c-0.4,0.5-0.7,1.1-1.1,1.6c-0.2,0.2-0.3,0.3-0.5,0.3c-0.7,0-1.5-0.2-2.2-0.2
		c-0.6,0-1.2-0.2-1.6-0.2c-1.1,0-2,0.1-2.8,0.2c-0.4,0-0.7,0.1-1.1,0.2c-0.3,0.1-0.6,0.3-0.8,0.4h-0.1c-0.4,0-0.7,0.1-1,0.4
		c-0.1,0.1-0.2,0.1-0.3,0.1c-0.2,0-0.3,0.1-0.4,0.2c-0.3,0.2-0.5,0.4-0.8,0.6c-0.2,0.2-0.4,0.3-0.6,0.5c-0.7,0.6-1.4,1.3-1.9,2.2
		c-0.2,0.4-0.5,0.8-0.5,1.3c0,0.3,0,0.6-0.1,0.9c0,0.4-0.1,0.6,0,1c0.1,0.3,0.2,0.6,0.4,0.9c0.1,0.3,0.3,0.5,0.6,0.8
		c0.9,0.9,2.2,1.1,3.3,1.3v0c0,0,0.2,0,0.6,0c0.9,0,1.7,0,2.5-0.4c0.1,0,0.2,0,0.3,0c0.3,0,0.6,0,0.9-0.2c0,0,0.1-0.1,0.2-0.1
		c0.4-0.2,0.8-0.3,1.2-0.4c0.9-0.5,1.8-1,2.6-1.5c0.4-0.3,0.7-0.7,1.1-0.9c0.8-0.7,1.7-1.5,2.3-2.3c0.1-0.1,0.2-0.2,0.4-0.1l0.9,0.4
		c0.3,0.1,0.6,0.2,0.8,0.2c0.1,0,0.2,0.1,0.4,0.1c0.8,0.3,1.7,0.4,2.5,0.5c0.3,0,0.6,0,0.8-0.1c0.2-0.1,0.4-0.1,0.6-0.2
		c1.3-0.2,2.5-0.6,3.4-1.5l0.2-0.2c0.3-0.1,0.4-0.3,0.6-0.6c0-0.2,0.2-0.3,0.2-0.4c0.1,0,0.2-0.1,0.2-0.2c0.2-0.5,0.3-1.1,0.6-1.6
		c0.1-0.2-0.1-0.5-0.3-0.6c-0.1-0.2-0.3-0.2-0.5-0.1s-0.4,0.2-0.6,0.4c-0.6,0.3-1.2,0.4-1.7,0.6c-0.1,0-0.3,0-0.4,0.1
		c-0.2,0-0.5,0.2-0.7,0.3c-0.4-0.1-0.8,0-1.1,0.1c-0.2,0-0.5,0-0.7,0c-0.5-0.1-1-0.2-1.5-0.3c-0.4-0.1-0.8-0.2-1.1-0.3
		c-0.2,0-0.2-0.1-0.1-0.2c0.2-0.2,0.3-0.4,0.4-0.7c0.4-0.3,0.6-0.7,0.7-1.2c0,0,0-0.2,0.1-0.2c0.3-0.2,0.4-0.6,0.6-0.9
		c0.3-0.6,0.8-1,1-1.6c0,0,0-0.1,0.1-0.2c0.1-0.1,0.4-0.1,0.4-0.4c0,0,0-0.1,0-0.2c0-0.2,0.1-0.4,0.2-0.5c0.2-0.1,0.4-0.4,0.4-0.6
		c0.1-0.2,0.2-0.3,0.2-0.5c0.5-0.8,1.1-1.6,1.6-2.5c0.3-0.5,0.6-1,0.9-1.5c0.3-0.4,0.6-0.9,0.7-1.4l0.2-0.2c0.2-0.1,0.4-0.4,0.4-0.6
		c0-0.1,0.1-0.2,0.2-0.4c0.1-0.1,0.2-0.2,0.2-0.3l0.3-0.6c0.2-0.2,0.3-0.4,0.4-0.6c0.2-0.4,0.5-0.8,0.6-1.2c0,0,0-0.1,0-0.1
		c0.3-0.3,0.6-0.7,0.8-1.1c0.2-0.3,0.3-0.5,0.5-0.8c0.2-0.3,0.4-0.6,0.5-0.9c0.8-0.8,1.2-1.8,1.8-2.6c0.1-0.1,0.2-0.2,0.2-0.4
		C148.7,29.9,148.5,29.7,148.1,29.7z M128.4,54.2c-0.7,0.9-1.3,1.8-2.1,2.7c-0.4,0.6-0.9,1-1.6,1.4c-0.4,0.2-0.7,0.6-1.1,0.8
		c-0.2,0-0.3,0.1-0.4,0.2c-0.3,0.2-0.5,0.1-0.8,0.3c-0.2,0.1-0.4,0.2-0.6,0.2l-0.3,0.1c-0.2,0-0.5,0-0.8,0c-0.8,0.3-1.6-0.1-2.4-0.4
		c-0.2-0.1-0.2-0.4-0.3-0.5c-0.3-0.3-0.3-0.6-0.2-1.1c0.3-1.3,1.1-2.3,2.1-3.1c0.6-0.4,1.3-0.8,2.1-1.1c0.5-0.1,1.1-0.3,1.6-0.2h0.2
		c0.2,0,0.3,0,0.7-0.1c0.4-0.1,0.7-0.1,1.1,0c0.7,0.2,1.5,0.2,2.2,0.5c0.1,0.1,0.2,0.1,0.4,0.1C128.4,54,128.5,54.1,128.4,54.2z
		 M141,33.3c-0.1,0.1-0.2,0.2-0.3,0.3c0,0-0.1,0.1-0.1,0.1c-0.3,0.6-0.7,1.2-1.1,1.7c-0.3,0.4-0.5,0.8-0.8,1.2
		c-0.2,0.2-0.4,0.5-0.5,0.8c-0.2,0.4-0.5,0.8-0.8,1.3l-0.2,0.2c-0.1,0.2-0.2,0.3-0.3,0.4c-0.2,0.3-0.4,0.4-0.6,0.8
		c0,0.1-0.1,0.2-0.2,0.3c-0.1,0.1-0.1,0.2-0.2,0.2c-0.4,0.3-0.5,0.8-0.7,1.2l-0.4,0.4c0,0,0,0,0,0c-0.2,0.6-0.8,0.9-1.1,1.5
		c-0.1,0.2-0.2,0.3-0.4,0.3c-0.2,0-0.4,0.1-0.5,0.3c0,0,0,0,0,0.1c-0.5,0.3-0.9,0.7-1.4,0.9l-0.2,0c-0.2,0-0.4,0.2-0.8,0.2
		c-0.3,0-0.6-0.3-0.8-0.7c-0.1-0.4-0.2-0.7-0.2-1c0-0.6,0.2-1.2,0.4-1.7c0.1-0.3,0.2-0.6,0.3-0.9c0-0.2,0.1-0.2,0.2-0.4
		c0.4-0.6,0.8-1.4,1.2-2.1c0.1-0.2,0.3-0.4,0.4-0.6c0-0.1,0.2-0.2,0.2-0.3c0.2-0.5,0.5-0.9,0.8-1.3l0.2-0.2c0.2-0.2,0.5-0.4,0.6-0.5
		v0c0.1-0.3,0.2-0.4,0.4-0.6c0.1,0,0.1,0,0.2-0.1c0.1-0.1,0.2-0.3,0.4-0.5c0.3-0.3,0.6-0.6,0.8-0.8c0.3-0.4,0.8-0.7,1.2-1.1
		c0.3-0.3,0.7-0.4,0.9-0.8c0,0,0.1-0.1,0.2-0.1c0.6,0,1-0.4,1.6-0.5c0.6-0.1,1.4,0.3,1.7,0.8l0.1,0.3C141.4,32.8,141.2,33,141,33.3z
		"/>
	<path class="st0" d="M189,7.5c0.2-0.2,0.5-0.3,0.7-0.4c0.6-0.2,1.1-0.4,1.7-0.6c0.5-0.1,1.1-0.2,1.7-0.2c0.6,0.1,1.2,0.2,1.8,0.5
		c0.4,0.2,0.8,0.4,1.2,0.7c0.7,0.6,1.1,1.5,1.3,2.4c0,0.2,0.1,0.3,0.2,0.5c0.4,0.9,0.4,1.9,0.3,2.9c-0.2,1.2-0.8,2.3-1.7,3.2
		c-0.3,0.4-0.7,0.6-1.1,0.8c-0.3,0.2-0.5,0.2-0.7,0.2c-0.1,0-0.2,0-0.3,0c-0.1,0-0.2,0-0.3,0.1c-0.3,0.2-0.4,0.5-0.2,0.7
		c0.1,0.1,0.2,0.2,0.3,0.2c0.8,0.4,1.7,0.6,2.5,0.3c0.5-0.2,1-0.3,1.5-0.4c0.4-0.1,0.7-0.3,0.9-0.5c0.2-0.2,0.5-0.4,0.8-0.5
		c0.4-0.2,0.6-0.5,0.8-0.8c0.7-1.1,1.1-2.3,1.1-3.5c0,0,0-0.1,0-0.2c0.2-0.6,0-1.3,0.1-1.9l0-0.2c-0.1-0.1-0.1-0.3-0.1-0.4
		c-0.1-0.4,0-0.6,0-1c0-0.5-0.2-0.9-0.4-1.3c-0.2-0.3-0.3-0.7-0.6-0.9c-0.5-0.5-1-1-1.5-1.5c-1.4-1.1-2.9-1.6-4.7-1.7
		c-0.2,0-0.6-0.1-0.8-0.1c-0.2,0-0.5,0-0.7,0c-0.7,0.1-1.4,0.2-2,0.3c-0.5,0.1-1.1,0.2-1.5,0.4c-0.1,0.1-0.3,0.1-0.4,0.1
		C188.2,5,188,5,187.8,5.1c-0.8,0.4-1.7,0.7-2.4,1.2c-0.5,0.4-1.1,0.7-1.7,1.1c-1.5,1-2.4,2.5-3.3,4c-0.2,0.3-0.2,0.6-0.5,0.9
		c0,0-0.1,0.1-0.1,0.2c0,0.3-0.2,0.6-0.3,1c-0.1,0.2-0.2,0.4-0.2,0.7c-0.1,0.3-0.2,0.5-0.2,0.6c0,0.1,0,0.1,0,0.2
		c0,0.3-0.1,0.6-0.1,1c-0.2,0.6-0.2,1.3-0.2,2.1c0,0.4,0.1,0.9,0,1.3v0.3c0.2,0.6,0.1,1.3,0.2,1.9c0.1,0.7,0,1.4,0.1,2.1
		c0,0.4,0.1,0.5,0.1,0.6c0,0.1,0,0.1,0,0.2c-0.1,0.8,0.1,1.5,0.1,2.2c0,0.6,0,1.4,0.2,2.1c0.1,0.2,0.1,0.4,0,0.6
		c-0.1,0.4,0,0.6,0.1,1c0,0.2,0,0.4,0,0.6c0,0.4,0.1,0.7,0.1,1.1c0,0.4,0,0.8,0.1,1.2c0,0.5,0,1,0,1.5c0,0.5,0,1,0,1.4
		c0,0.5,0,0.9,0,1.4c0,0.5-0.2,1.1-0.2,1.6c0,0.1,0,0.2-0.1,0.4c-0.2,0.4-0.3,0.9-0.4,1.3c-0.1,0.3,0,0.7-0.2,1.1
		c-0.3,0.5-0.5,1.1-0.8,1.7c-0.2,0.3-0.4,0.6-0.6,0.9c-0.4,0.6-0.8,1.1-1.3,1.7c-0.4,0.5-0.8,0.9-1.3,1.3c-0.4,0.4-1,0.7-1.6,0.9
		c-0.2,0.1-0.4,0.1-0.5,0.2c-0.2,0.1-0.4,0.2-0.7,0.3c-0.4,0.2-0.6,0.1-1,0.2c0,0-0.1,0-0.2,0.1c-0.3,0.1-0.6,0.2-0.9,0.2
		c-0.4,0.1-0.8,0.1-1.2,0.1c-0.6,0-1.2-0.2-1.8-0.2c-0.7,0-1.4-0.2-2-0.5c-1.1-0.5-2.3-0.9-3.1-1.9c-0.6-0.7-1.3-1.4-1.8-2.1
		c-0.1-0.2-0.2-0.6-0.3-0.7l-0.1-0.2c-0.3-0.5-0.5-0.9-0.5-1.6l0-0.2c-0.3-0.8-0.5-1.7-0.4-2.5c0-0.4,0.1-0.5,0.1-0.6v-0.1
		c-0.1-0.3,0.3-1.3,0.2-1.6c0-0.7,0.2-1,0.4-1.7c0.2-0.5,0.5-1,0.5-1.6c0-0.1,0.1-0.2,0.2-0.3c0.4-0.4,0.6-1,0.9-1.5
		c0.3-0.4,0.6-0.9,1-1.3c0.3-0.3,0.5-0.6,0.8-0.9c0.3-0.2,0.5-0.2,0.5-0.3c0,0,0,0,0-0.1c0.2-0.3,0.4-0.4,0.7-0.4
		c0.2,0,0.4,0,0.4-0.2c0.4-0.4,1-0.4,1.5-0.6c0.4-0.1,0.9-0.2,1.4-0.2c0.2,0,0.3,0,0.5,0c0.4,0.1,0.7,0.2,1.1,0.3
		c0.4,0.1,0.8,0.3,1.2,0.6c0.5,0.6,1.2,1.1,1.6,1.8c0.4,0.7,0.5,1.5,0.8,2.2c0,0,0,0.1,0,0.1c-0.1,0.4,0,0.7,0,1.1
		c-0.1,0.5,0,1.1-0.1,1.6c-0.1,0.2-0.2,0.4-0.3,0.6c-0.2,0.8-0.4,1.5-0.9,2.2c0,0,0,0.1-0.1,0.2c-0.3,0.7-0.8,1.1-1.5,1.5
		c-0.2,0.1-0.4,0.2-0.6,0.1c-0.3-0.2-0.6-0.2-0.9-0.4c-0.2-0.1-0.4-0.3-0.5-0.6c-0.1-0.2-0.2-0.5-0.3-0.8c-0.2-0.4-0.5-0.6-0.9-0.5
		c-0.3,0-0.4,0-0.4,0.4c-0.1,0.4-0.1,0.7,0,1.1c0.1,0.4,0.3,0.5,0.3,0.7l0.1,0.2c0.1,0.2,0.2,0.3,0.4,0.4c0.7,0.5,1.5,0.8,2.4,1
		c0.7,0.1,1.3,0,1.9-0.4c0.1-0.1,0.2-0.2,0.4-0.3c0.5-0.1,0.8-0.5,1.3-0.8c0.8-0.8,1.6-1.6,1.9-2.7c0-0.2,0.2-0.4,0.3-0.6
		c0.1-0.1,0.2-0.2,0.2-0.3c0.1-0.5,0.3-0.9,0.3-1.4c0-0.1,0-0.2,0.1-0.2c0.1-0.3,0.1-0.6,0.1-0.8c0-0.3,0-0.6-0.1-0.8
		c-0.1-0.6-0.1-1.2-0.4-1.8c-0.1-0.4-0.4-0.7-0.4-1.1c-0.1-0.4-0.4-0.8-0.7-1.1c-0.1-0.2-0.3-0.4-0.4-0.5c-0.3-0.4-0.7-0.7-1-1
		c-0.3-0.2-0.4-0.4-0.4-0.4c0,0-0.1,0-0.1,0c-0.7-0.4-1.5-0.6-2.3-1c-0.4-0.2-0.8-0.4-1.4-0.4c-0.4,0-0.9-0.2-1.4,0H166
		c-0.2,0-0.5,0.1-0.7,0.2c-0.9,0.2-1.8,0.4-2.6,0.8c-0.3,0.2-0.6,0.3-1,0.4c-0.1,0-0.3,0.1-0.4,0.2c-0.2,0.3-0.6,0.5-1,0.7
		c-0.3,0.2-0.4,0.4-0.4,0.4l-0.1,0.1c-0.4,0.1-0.6,0.3-0.8,0.6c-0.1,0.1-0.4,0.2-0.4,0.3l-0.1,0.2c-0.2,0.1-0.2,0.4-0.3,0.5
		c-0.4,0.3-0.6,0.8-0.7,1.2c0,0.1,0,0.1-0.1,0.2c-0.6,0.7-0.9,1.7-1.3,2.5c-0.2,0.4-0.4,0.8-0.4,1.2c0,0.3,0,0.6-0.2,0.8
		c-0.1,0.2-0.1,0.4-0.1,0.6c0,0.4,0,0.7,0,1c-0.2,0.6-0.2,1.3-0.1,1.9c0,0.3,0,0.6,0,0.9c0,0.2,0,0.4,0.1,0.6
		c0.1,0.2,0.1,0.5,0.2,0.7c0.1,0.8,0.2,1.7,0.6,2.4c0.2,0.3,0.3,0.4,0.3,0.5l0,0.2c0.3,0.7,0.7,1.3,1.2,1.9c0.3,0.4,0.7,0.7,0.9,1.2
		l0.1,0.1c1,0.6,1.8,1.4,2.7,1.9c0.5,0.3,1.1,0.6,1.6,0.8c0.3,0.2,0.5,0.3,0.5,0.3h0.1c0.6,0.2,1.3,0.4,1.9,0.6
		c0.9,0.2,1.9,0.4,2.9,0.5c0.8,0,1.5,0,2.3-0.1c0.8-0.1,1.7,0,2.5-0.3c0.8-0.2,1.6-0.3,2.3-0.7c0.1-0.1,0.2-0.1,0.4-0.1
		c0.2,0,0.5-0.1,0.7-0.3c0.2-0.2,0.3-0.3,0.6-0.3c0.6-0.2,1.2-0.6,1.7-1c0.4-0.3,0.7-0.6,1.2-0.9c0.3-0.2,0.5-0.3,0.7-0.5
		c0.2-0.1,0.3-0.3,0.5-0.4c0.2-0.2,0.4-0.3,0.6-0.4l0.2-0.2c0.5-0.5,0.8-1.3,1.3-1.7c0.5-0.5,0.6-1.3,1-1.9c0.1-0.1,0.1-0.2,0.2-0.4
		c0.1-0.3,0.3-0.4,0.3-0.5c0-0.1,0-0.2,0-0.2c0-0.2,0.1-0.5,0.2-0.7c0-0.1,0.1-0.2,0.1-0.4c0.1-0.6,0.2-1.1,0.4-1.6
		c0.1-0.4,0.2-0.8,0.2-1.3c0.1-0.2,0.2-0.6,0.2-0.9c0-0.2,0-0.3,0-0.5c0-0.6-0.1-1.2,0-1.7c0.1-0.4,0-0.8-0.1-1.1
		c0-0.2-0.1-0.4,0-0.5c0.1-0.2,0.1-0.3,0.1-0.5c0-0.4-0.1-0.6-0.1-0.6v-0.1c0-0.8-0.1-1.6-0.2-2.3l-0.1-0.6c0,0,0-0.1,0-0.1
		c0.2-0.5,0-0.9-0.1-1.4l-0.1-0.7c-0.1-0.8-0.1-1.6-0.2-2.4c-0.2-0.9-0.3-1.8-0.4-2.7c0-0.3-0.1-0.5-0.1-0.8c0-0.5,0-1.1-0.2-1.6
		c-0.1-0.4-0.2-0.8-0.2-1.3c0-0.5,0-1,0-1.5c0-0.5-0.1-0.9,0-1.4c0.1-0.4,0.1-0.7,0.2-1.1c0.1-0.5,0.2-1,0.3-1.4
		c0.1-0.4,0.2-0.5,0.2-0.6v-0.2c0-0.4,0.2-0.7,0.4-1c0-0.1,0.1-0.1,0.1-0.2c0.1-0.6,0.5-1,0.8-1.5c0.4-0.7,0.9-1.3,1.6-1.7L189,7.5z
		"/>
	<path class="st0" d="M251.2,37.9c-0.3,0-0.6,0.2-0.8,0.4c-0.3,0.4-0.6,0.7-0.8,1.1c-0.5,0.6-1,1.4-1.6,2c-0.3,0.3-0.5,0.6-0.8,0.9
		s-0.5,0.6-0.9,0.9c0,0-0.1,0.1-0.1,0.2c-0.2,0.3-0.3,0.5-0.6,0.6c-0.2,0.1-0.3,0.2-0.4,0.4c-0.1,0.2-0.2,0.3-0.4,0.4
		c-0.2,0.1-0.4,0.2-0.5,0.4c-0.1,0.2-0.3,0.3-0.5,0.4c-0.4,0.1-0.6,0.2-0.7,0.1c0,0-0.1,0-0.1-0.1c-0.2-0.3-0.5-0.6-0.3-1.1l0.2-0.9
		c0-0.2,0.1-0.5,0.2-0.7c0.2-0.4,0.4-0.8,0.6-1.3c0.3-0.7,0.7-1.3,1.1-1.9c0.2-0.4,0.6-0.8,0.8-1.3c0.3-0.5,0.6-1.1,1-1.5
		c0.3-0.4,0.5-0.9,0.8-1.3c0.2-0.3,0.4-0.6,0.5-0.9c0.4-1,0.7-2,0.6-3.1c0-0.1,0-0.1,0-0.2c0.1-0.3,0-0.5,0-0.8
		c-0.1-0.3-0.2-0.5-0.4-0.8c-0.1-0.2-0.2-0.3-0.3-0.5c-0.2-0.3-0.4-0.4-0.8-0.5c-0.2-0.1-0.4-0.1-0.6-0.1c-0.2-0.1-0.5-0.2-0.6-0.2
		c-0.2,0-0.4,0.1-0.6,0.1h-0.3c-0.5,0-0.9,0.1-1.3,0.4c-0.8,0.5-1.7,1-2.4,1.7l-0.5,0.4c-0.2,0.2-0.4,0.4-0.7,0.6c0,0-0.1,0.1-0.1,0
		c-0.1,0,0-0.1,0-0.2c0,0,0-0.1,0-0.1c0.4-0.5,0.6-1.1,1-1.7c0.1-0.1,0.1-0.3,0.1-0.4c0-0.1,0-0.2-0.2-0.2c-0.4,0-0.8-0.2-1.1-0.2
		c-0.4,0-0.8-0.1-1.1-0.1c-0.4,0-0.7-0.1-1.1-0.1c-0.5,0-1.1,0.1-1.6,0h-0.3c-0.3,0-0.5,0.1-0.7,0.2c-0.2,0.2,0,0.3,0,0.5
		c0,0.1,0,0.2-0.1,0.5c0,0.5-0.1,1.1-0.6,1.4c0,0-0.1,0.1-0.1,0.2c-0.3,0.7-0.7,1.4-1.2,2l-0.2,0.2c-0.2,0.3-0.2,0.6-0.3,0.9
		l-0.4,0.6l-0.4,0.7c-0.4,0.8-0.8,1.5-1.2,2.3c0,0-0.1,0.1-0.1,0.1c-0.7,1.2-1.5,2.3-2.5,3.3c-0.5,0.4-1.1,0.7-1.7,1
		c-0.4,0.2-0.5,0.2-0.6,0.2h-0.1c-0.1,0-0.2,0-0.2,0s0-0.1,0.1-0.2c0.3-0.3,0.6-0.6,0.7-1l0.4-0.6c0.1-0.1,0.1-0.2,0.2-0.3
		c0.2-0.5,0.6-1,0.6-1.6c0,0,0-0.1,0-0.1c0.4-0.6,0.6-1.4,0.8-2.1c0.2-0.8,0.5-1.7,0.4-2.5c0,0,0-0.1,0-0.1c0.1-0.8-0.1-1.6-0.2-2.3
		c-0.1-0.3-0.4-0.4-0.4-0.8c-0.1-0.5-0.4-0.9-0.8-1.3c-0.2-0.2-0.5-0.5-0.9-0.6c-0.3-0.1-0.6-0.2-0.9-0.3c-0.6-0.2-1.1-0.4-1.7-0.4
		c-0.6,0-1.2,0-1.8,0c-0.5,0-0.9,0.2-1.3,0.2c-0.3,0.1-0.6,0.2-0.9,0.2c-0.1,0-0.3,0-0.4,0.1c-0.3,0.1-0.6,0.2-0.9,0.4
		c-0.4,0.2-0.7,0.4-1.1,0.4l-0.2,0.1c-0.2,0.2-0.5,0.4-0.8,0.5l-0.5,0.5c-0.1,0-0.2,0.1-0.2,0.1c-0.3,0-0.5,0.2-0.6,0.4
		c0,0.1-0.1,0.2-0.2,0.2c-0.4,0.2-0.8,0.6-1.1,0.8c-0.6,0.4-1,1.1-1.7,1.5c-0.2,0.6-0.8,0.8-0.9,1.4l-0.4,0.3c0,0-0.1,0.1-0.1,0.1
		c-0.2,0.4-0.5,0.8-0.7,1.2c-0.2,0.4-0.3,0.8-0.5,1.1c-0.4,0.6-0.5,1.4-0.8,2.1c-0.2,0.4-0.2,0.9-0.2,1.4c-0.5,0.4-1.1,0.7-1.7,1
		c-0.4,0.2-0.5,0.2-0.6,0.2h-0.1c-0.1,0-0.2,0-0.2,0c0-0.1,0-0.1,0.1-0.2c0.3-0.3,0.6-0.6,0.7-1l0.4-0.6c0.1-0.1,0.1-0.2,0.2-0.3
		c0.2-0.5,0.6-1,0.6-1.6c0,0,0-0.1,0-0.1c0.4-0.6,0.6-1.4,0.8-2.1c0.2-0.8,0.5-1.7,0.4-2.5c0,0,0-0.1,0-0.1c0.1-0.8-0.1-1.6-0.2-2.3
		c-0.1-0.3-0.4-0.4-0.4-0.8c-0.1-0.5-0.4-0.9-0.8-1.3c-0.2-0.2-0.5-0.5-0.9-0.6c-0.3-0.1-0.6-0.2-0.9-0.3c-0.6-0.2-1.1-0.4-1.7-0.4
		c-0.6,0-1.2,0-1.8,0c-0.5,0-0.9,0.2-1.3,0.2c-0.3,0.1-0.6,0.2-0.9,0.2c-0.1,0-0.3,0-0.4,0.1c-0.3,0.1-0.6,0.2-0.9,0.4
		c-0.4,0.2-0.7,0.4-1.1,0.4l-0.2,0.1c-0.2,0.2-0.5,0.4-0.8,0.5l-0.5,0.5c-0.1,0-0.2,0.1-0.2,0.1c-0.3,0-0.5,0.2-0.6,0.4
		c0,0.1-0.1,0.2-0.2,0.2c-0.4,0.2-0.8,0.6-1.1,0.8c-0.6,0.4-1,1.1-1.7,1.5c-0.2,0.6-0.8,0.8-0.9,1.4l-0.4,0.3c0,0-0.1,0.1-0.1,0.1
		c-0.2,0.4-0.5,0.8-0.7,1.2c-0.2,0.4-0.3,0.8-0.5,1.1c-0.4,0.6-0.5,1.4-0.8,2.1c-0.2,0.6-0.2,1.2-0.3,1.8c-0.1,0.4-0.2,0.5-0.2,0.6
		v0.1v0.8c0,0.6,0,1.2,0.1,1.7c0.2,0.7,0.3,1.4,0.6,2.1c0.4,0.9,0.9,1.8,2,2.1c1.1,0.3,2.1,0.6,3.2,0.2c0.1,0,0.2,0,0.4,0
		c0.3,0,0.6,0,0.8-0.1c0.5-0.2,1.1-0.2,1.6-0.4c0.6-0.2,1.1-0.4,1.5-0.6c0.2-0.1,0.4-0.2,0.6-0.3c0.2,0,0.4-0.1,0.5-0.3
		c0,0,0.1-0.1,0.1-0.1c0.3-0.2,0.5-0.2,0.7-0.3c0.1,0,0.2-0.1,0.3-0.2c0.6-0.5,1.2-0.9,1.8-1.3c0.2-0.2,0.4-0.4,0.6-0.6
		c0.2-0.2,0.4-0.5,0.7-0.5c0.5,0,1,0,1.5-0.1c0.4,0,0.8-0.2,1.3-0.3c0.1,0,0.2-0.1,0.2-0.2c0.2-0.2,0.4-0.2,0.6-0.2
		c0.2,0,0.4-0.1,0.6-0.2c0,0.4,0,0.9,0.1,1.3c0.2,0.7,0.3,1.4,0.6,2.1c0.4,0.9,0.9,1.8,2,2.1c1.1,0.3,2.1,0.6,3.2,0.2
		c0.1,0,0.2,0,0.4,0c0.3,0,0.6,0,0.8-0.1c0.5-0.2,1.1-0.2,1.6-0.4c0.6-0.2,1.1-0.4,1.5-0.6c0.2-0.1,0.4-0.2,0.6-0.3
		c0.2,0,0.4-0.1,0.5-0.3c0,0,0.1-0.1,0.1-0.1c0.3-0.2,0.5-0.2,0.7-0.3c0.1,0,0.2-0.1,0.3-0.2c0.6-0.5,1.2-0.9,1.8-1.3
		c0.2-0.2,0.4-0.4,0.6-0.6c0.2-0.2,0.4-0.5,0.7-0.5c0.5,0,1,0,1.5-0.1c0.4,0,0.8-0.2,1.3-0.3c0.1,0,0.2-0.1,0.2-0.2
		c0.2-0.2,0.4-0.2,0.6-0.2c0,0,0,0,0,0c-0.2,0.3-0.3,0.6-0.5,0.8c-0.4,0.5-0.7,1.1-1,1.7c-0.3,0.5-0.5,1.1-0.9,1.6
		c-0.2,0.2-0.2,0.4-0.3,0.7c0,0.1,0,0.2,0.1,0.2c0.2,0,0.5,0.2,0.8,0.1c0.8-0.1,1.6-0.1,2.3-0.1c0.6,0,1.3,0.1,1.9,0
		c0.2,0,0.4-0.1,0.6-0.3c0.4-0.5,0.6-1.1,1-1.7c0.1-0.2,0.2-0.4,0.3-0.6c0.1-0.1,0.1-0.2,0.2-0.4c0.2-0.5,0.5-0.9,0.7-1.4
		c0.1-0.2,0.3-0.5,0.4-0.8c0.1-0.2,0.3-0.5,0.4-0.7c0.4-0.5,0.8-1,1.1-1.5c0.2-0.3,0.3-0.7,0.5-1c0.4-0.7,0.9-1.3,1.2-2
		c0-0.1,0.1-0.2,0.2-0.2c0.2-0.2,0.4-0.4,0.6-0.7c0.5-0.6,0.8-1.3,1.5-1.9l0.1-0.1c0.2-0.3,0.2-0.5,0.3-0.7c0-0.1,0.1-0.2,0.2-0.2
		c0.2-0.1,0.4-0.3,0.5-0.6c0-0.1,0.2-0.2,0.3-0.3c0.4-0.2,0.6-0.6,0.9-1c0.4-0.4,0.8-0.6,1.2-0.8c0.3-0.2,0.7-0.3,1.1-0.4
		c0.3-0.1,0.5,0,0.5,0.3c0,0.5,0,1-0.3,1.4c-0.4,0.5-0.5,1.1-0.9,1.5c-0.3,0.4-0.7,0.9-0.9,1.4c0,0.1-0.1,0.2-0.2,0.3
		c-0.2,0.3-0.2,0.4-0.3,0.5c0,0,0,0.1-0.1,0.1c-0.3,0.2-0.4,0.5-0.5,0.8c0,0.2-0.2,0.3-0.2,0.4c-0.1,0.1-0.2,0.2-0.3,0.4l-0.8,1.5
		l-0.8,1.9c-0.2,0.3-0.3,0.7-0.4,1.1c-0.3,0.5-0.2,1.2-0.5,1.7v0.1c0,0.3,0,0.6,0,0.9c0,0.6,0.1,1.3,0.4,1.9c0.4,0.9,1.1,1.3,2,1.6
		c0.6,0.2,1.2,0.1,1.8-0.1c0.2-0.1,0.5-0.2,0.8-0.3c0.8-0.4,1.5-0.9,2.2-1.5c0.1-0.1,0.3-0.3,0.4-0.4c0.6-0.5,1.2-1,1.7-1.6
		c0.8-0.8,1.5-1.8,2.5-2.5c0.2-0.1,0.3-0.3,0.4-0.5c0.2-0.4,0.5-0.8,0.8-1.2c0.3-0.3,0.5-0.7,0.7-1.1c0.1-0.4,0.3-0.7,0.6-1
		c0.2-0.2,0.2-0.4,0.3-0.6c0-0.2,0.1-0.4,0.2-0.6C251.7,38.1,251.5,37.9,251.2,37.9z M198.9,43.6c-0.2,0.1-0.4,0.3-0.5,0.4
		c0,0-0.1,0.1-0.1,0.2c-0.1,0.3-0.3,0.4-0.5,0.6c-0.2,0.1-0.4,0.3-0.4,0.5c-0.1,0.1-0.4,0.3-0.6,0.5l-0.4,0.4c0,0,0,0-0.1,0
		c-0.6,0.2-1.1,0.7-1.8,0.9c-0.3,0.1-0.6,0.1-1,0.1c-0.3,0-0.7,0-1.1-0.2c-0.6-0.3-0.7-0.8-0.7-1.4c0-0.4,0.1-0.7,0.1-1.1
		c0.1-0.6,0.2-1.1,0.4-1.7c0.2-0.6,0.4-1.3,0.8-1.9c0.3-0.5,0.5-1.1,0.9-1.5c0.2-0.2,0.4-0.5,0.5-0.8c0.6-0.9,1.3-1.7,2-2.4
		c0.1-0.1,0.2-0.2,0.2-0.2h0c0,0,0,0.1,0,0.1c-0.2,0.4,0,0.8-0.1,1.3v0.2c0,0.4,0.1,0.8,0.2,1.3c0.1,0.4,0.3,0.8,0.4,1.3
		c0.3,1.1,1,2,1.8,2.7C199,43.1,199,43.4,198.9,43.6z M204.3,33c0,0.2,0,0.5-0.1,0.7c0,0.1,0,0.2,0,0.2c-0.2,0.3-0.3,0.6-0.4,1
		c0,0.3-0.2,0.6-0.3,0.8c-0.3,0.5-0.5,1-0.7,1.5c-0.3,0.8-0.7,1.5-1.2,2.1c-0.2,0.3-0.5,0.6-0.7,1c-0.2,0.3-0.3,0.4-0.3,0.5
		c0,0,0,0,0,0.1c-0.1,0.2-0.2,0.2-0.3,0s-0.2-0.2-0.3-0.4c-0.2-0.3-0.4-0.6-0.6-1c-0.2-0.3-0.3-0.4-0.4-0.6c0-0.1,0-0.2,0-0.2
		c0-0.2-0.1-0.4-0.2-0.5c-0.1-0.4-0.2-0.7-0.1-1.1c0-0.3,0-0.6,0.1-0.8c0.2-1.1,0.5-2.3,1.3-3.2c0.2-0.2,0.4-0.5,0.7-0.6
		c0.4-0.2,0.8-0.6,1.3-0.7c0.3-0.1,0.6-0.1,0.8-0.3c0.3-0.2,0.9,0,1.1,0.4C204.3,32.2,204.3,32.6,204.3,33z M218.7,43.6
		c-0.2,0.1-0.4,0.3-0.5,0.4c0,0-0.1,0.1-0.1,0.2c-0.1,0.3-0.3,0.4-0.5,0.6c-0.2,0.1-0.4,0.3-0.4,0.5c-0.1,0.1-0.4,0.3-0.6,0.5
		l-0.4,0.4c0,0,0,0-0.1,0c-0.6,0.2-1.1,0.7-1.8,0.9c-0.3,0.1-0.6,0.1-1,0.1c-0.3,0-0.7,0-1.1-0.2c-0.6-0.3-0.7-0.8-0.7-1.4
		c0-0.4,0.1-0.7,0.1-1.1c0.1-0.6,0.2-1.1,0.4-1.7c0.2-0.6,0.4-1.3,0.8-1.9c0.3-0.5,0.5-1.1,0.9-1.5c0.2-0.2,0.4-0.5,0.5-0.8
		c0.6-0.9,1.3-1.7,2-2.4c0.1-0.1,0.2-0.2,0.2-0.2h0c0,0,0,0.1,0,0.1c-0.2,0.4,0,0.8-0.1,1.3v0.2c0,0.4,0.1,0.8,0.2,1.3
		c0.1,0.4,0.3,0.8,0.4,1.3c0.3,1.1,1,2,1.8,2.7C218.9,43.1,218.9,43.4,218.7,43.6z M224.1,33c0,0.2,0,0.5-0.1,0.7c0,0.1,0,0.2,0,0.2
		c-0.2,0.3-0.3,0.6-0.4,1c0,0.3-0.2,0.6-0.3,0.8c-0.3,0.5-0.5,1-0.7,1.5c-0.3,0.8-0.7,1.5-1.2,2.1c-0.2,0.3-0.5,0.6-0.7,1
		c-0.2,0.3-0.3,0.4-0.3,0.5c0,0,0,0,0,0.1c-0.1,0.2-0.2,0.2-0.3,0c-0.1-0.1-0.2-0.2-0.3-0.4c-0.2-0.3-0.4-0.6-0.6-1
		c-0.2-0.3-0.3-0.4-0.4-0.6c0-0.1,0-0.2,0-0.2c0-0.2-0.1-0.4-0.2-0.5c-0.1-0.4-0.2-0.7-0.1-1.1c0-0.3,0-0.6,0.1-0.8
		c0.2-1.1,0.5-2.3,1.3-3.2c0.2-0.2,0.4-0.5,0.7-0.6c0.4-0.2,0.8-0.6,1.3-0.7c0.3-0.1,0.6-0.1,0.8-0.3c0.3-0.2,0.9,0,1.1,0.4
		C224.1,32.2,224.2,32.6,224.1,33z"/>
</g>
</svg>
