<?xml version="1.0" encoding="utf-8"?>
<!-- Generator: Adobe Illustrator 24.3.0, SVG Export Plug-In . SVG Version: 6.00 Build 0)  -->
<svg version="1.1" id="Layer_1" xmlns="http://www.w3.org/2000/svg" xmlns:xlink="http://www.w3.org/1999/xlink" x="0px" y="0px"
	 viewBox="0 0 256 256" style="enable-background:new 0 0 256 256;" xml:space="preserve">
<style type="text/css">
	.st0{fill:#081C3C;}
</style>
<g>
	<g>
		<g>
			<path class="st0" d="M7.9,95.7c0.7,0,1.2,0.6,1.2,1.2v150.5h146c0.7,0,1.2,0.6,1.2,1.2c0,0.7-0.6,1.2-1.2,1.2H7.9
				c-0.7,0-1.2-0.6-1.2-1.2V96.9C6.7,96.2,7.2,95.7,7.9,95.7z"/>
		</g>
		<g>
			<g>
				<path class="st0" d="M39.3,215.1c0.3,0,0.6,0.1,0.9,0.4c0.5,0.5,0.5,1.3,0,1.8L9,249.4c-0.5,0.5-1.3,0.5-1.8,0
					c-0.5-0.5-0.5-1.3,0-1.8l31.2-32.2C38.7,215.2,39,215.1,39.3,215.1z"/>
			</g>
			<g>
				<path class="st0" d="M57.8,196.9c0.1,0,0.2,0,0.3,0.1c0.2,0.2,0.2,0.4,0,0.6l-2.8,2.9c-0.2,0.2-0.4,0.2-0.6,0
					c-0.2-0.2-0.2-0.4,0-0.6l2.8-2.9C57.6,196.9,57.7,196.9,57.8,196.9z"/>
			</g>
			<g>
				<path class="st0" d="M52.5,202c0.2,0,0.4,0.1,0.6,0.2c0.3,0.3,0.3,0.8,0,1.2l-3.8,3.9c-0.3,0.3-0.8,0.3-1.2,0
					c-0.3-0.3-0.3-0.8,0-1.2l3.8-3.9C52,202,52.3,202,52.5,202z"/>
			</g>
			<g>
				<path class="st0" d="M45.7,208.7c0.3,0,0.5,0.1,0.7,0.3c0.4,0.4,0.4,1.1,0,1.5l-4.5,4.6c-0.4,0.4-1.1,0.4-1.5,0
					c-0.4-0.4-0.4-1.1,0-1.5L45,209C45.2,208.8,45.4,208.7,45.7,208.7z"/>
			</g>
			<g>
				<path class="st0" d="M39.3,215.1c0.3,0,0.6,0.1,0.9,0.4c0.5,0.5,0.5,1.3,0,1.8L9,249.4c-0.5,0.5-1.3,0.5-1.8,0
					c-0.5-0.5-0.5-1.3,0-1.8l31.2-32.2C38.7,215.2,39,215.1,39.3,215.1z"/>
			</g>
			<g>
				<path class="st0" d="M48.5,188.9c0.1,0,0.2,0,0.2,0.1c0.2,0.1,0.2,0.4,0.1,0.6l-2.2,3.3c-0.1,0.2-0.4,0.2-0.6,0.1
					c-0.2-0.1-0.2-0.4-0.1-0.6l2.2-3.3C48.2,189,48.3,188.9,48.5,188.9z"/>
			</g>
			<g>
				<path class="st0" d="M44.2,194.7c0.2,0,0.3,0,0.5,0.1c0.4,0.3,0.5,0.8,0.2,1.2l-3.1,4.5c-0.3,0.4-0.8,0.5-1.2,0.2
					c-0.4-0.3-0.5-0.8-0.2-1.2l3.1-4.5C43.7,194.9,44,194.7,44.2,194.7z"/>
			</g>
			<g>
				<path class="st0" d="M38.8,202.5c0.2,0,0.4,0.1,0.6,0.2c0.5,0.3,0.6,1,0.3,1.4l-3.6,5.3c-0.3,0.5-1,0.6-1.4,0.3
					c-0.5-0.3-0.6-1-0.3-1.4l3.6-5.3C38.1,202.7,38.5,202.5,38.8,202.5z"/>
			</g>
			<g>
				<path class="st0" d="M33.7,209.8c0.2,0,0.5,0.1,0.7,0.2c0.6,0.4,0.7,1.2,0.3,1.7L9.2,249.2c-0.4,0.6-1.2,0.7-1.7,0.3
					c-0.6-0.4-0.7-1.2-0.3-1.7l25.5-37.5C32.9,210,33.3,209.8,33.7,209.8z"/>
			</g>
			<g>
				<path class="st0" d="M38,182.8c0.1,0,0.1,0,0.2,0c0.2,0.1,0.3,0.3,0.2,0.6l-1.5,3.4c-0.1,0.2-0.3,0.3-0.6,0.2
					c-0.2-0.1-0.3-0.3-0.2-0.6l1.5-3.4C37.7,182.9,37.8,182.8,38,182.8z"/>
			</g>
			<g>
				<path class="st0" d="M35,188.9c0.1,0,0.2,0,0.3,0.1c0.4,0.2,0.6,0.7,0.4,1.1l-2.2,4.8c-0.2,0.4-0.7,0.6-1.1,0.4
					c-0.4-0.2-0.6-0.7-0.4-1.1l2.2-4.8C34.4,189.1,34.7,188.9,35,188.9z"/>
			</g>
			<g>
				<path class="st0" d="M31.1,197.2c0.1,0,0.3,0,0.4,0.1c0.5,0.2,0.8,0.9,0.5,1.4l-2.6,5.8c-0.2,0.5-0.9,0.8-1.4,0.5
					c-0.5-0.2-0.8-0.9-0.5-1.4l2.6-5.8C30.3,197.5,30.7,197.2,31.1,197.2z"/>
			</g>
			<g>
				<path class="st0" d="M27.4,205.2c0.2,0,0.3,0,0.5,0.1c0.6,0.3,0.9,1,0.6,1.7L9.3,249c-0.3,0.6-1,0.9-1.7,0.6
					c-0.6-0.3-0.9-1-0.6-1.7l19.2-42.1C26.4,205.4,26.9,205.2,27.4,205.2z"/>
			</g>
			<g>
				<path class="st0" d="M25.8,178.2c0,0,0.1,0,0.1,0c0.2,0.1,0.4,0.3,0.3,0.5l-0.9,3.4c-0.1,0.2-0.3,0.4-0.5,0.3
					c-0.2-0.1-0.4-0.3-0.3-0.5l0.9-3.4C25.5,178.3,25.7,178.2,25.8,178.2z"/>
			</g>
			<g>
				<path class="st0" d="M24.2,184.3c0.1,0,0.1,0,0.2,0c0.4,0.1,0.7,0.6,0.6,1l-1.2,4.8c-0.1,0.4-0.6,0.7-1,0.6
					c-0.4-0.1-0.7-0.6-0.6-1l1.2-4.8C23.5,184.5,23.8,184.3,24.2,184.3z"/>
			</g>
			<g>
				<path class="st0" d="M22,192.7c0.1,0,0.2,0,0.3,0c0.6,0.1,0.9,0.7,0.8,1.3l-1.5,5.9c-0.1,0.6-0.7,0.9-1.3,0.8
					c-0.6-0.1-0.9-0.7-0.8-1.3l1.5-5.9C21.1,193,21.5,192.7,22,192.7z"/>
			</g>
			<g>
				<path class="st0" d="M19.9,200.9c0.1,0,0.2,0,0.3,0c0.7,0.2,1.1,0.8,0.9,1.5L9.3,248.8c-0.2,0.7-0.8,1.1-1.5,0.9
					c-0.7-0.2-1.1-0.8-0.9-1.5l11.7-46.4C18.8,201.3,19.3,200.9,19.9,200.9z"/>
			</g>
			<g>
				<path class="st0" d="M14,176C14,176,14,176,14,176c0.3,0,0.4,0.2,0.4,0.4l-0.3,3.2c0,0.2-0.2,0.4-0.4,0.4
					c-0.2,0-0.4-0.2-0.4-0.4l0.3-3.2C13.6,176.2,13.8,176,14,176z"/>
			</g>
			<g>
				<path class="st0" d="M13.5,181.7C13.5,181.7,13.5,181.7,13.5,181.7c0.5,0,0.9,0.4,0.8,0.9l-0.4,4.6c0,0.5-0.4,0.8-0.9,0.8
					c-0.5,0-0.8-0.4-0.8-0.9l0.4-4.6C12.7,182,13.1,181.7,13.5,181.7z"/>
			</g>
			<g>
				<path class="st0" d="M12.8,189.7C12.9,189.7,12.9,189.7,12.8,189.7c0.7,0,1.1,0.6,1,1.1l-0.5,5.8c0,0.6-0.5,1-1.1,1
					c-0.6,0-1-0.5-1-1.1l0.5-5.8C11.8,190.1,12.3,189.7,12.8,189.7z"/>
			</g>
			<g>
				<path class="st0" d="M12.2,197.7c0,0,0.1,0,0.1,0c0.7,0.1,1.2,0.7,1.1,1.3l-4,49.6c-0.1,0.7-0.7,1.2-1.3,1.1
					c-0.7-0.1-1.2-0.7-1.1-1.3l4-49.6C11,198.2,11.5,197.7,12.2,197.7z"/>
			</g>
			<g>
				<path class="st0" d="M65.6,206.5c0.1,0,0.3,0.1,0.3,0.2c0.1,0.2,0.1,0.4-0.1,0.6l-3.2,2.3c-0.2,0.1-0.4,0.1-0.6-0.1
					c-0.1-0.2-0.1-0.4,0.1-0.6l3.2-2.3C65.5,206.5,65.6,206.5,65.6,206.5z"/>
			</g>
			<g>
				<path class="st0" d="M59.6,210.4c0.3,0,0.5,0.1,0.7,0.3c0.3,0.4,0.2,0.9-0.2,1.2l-4.4,3.2c-0.4,0.3-0.9,0.2-1.2-0.2
					c-0.3-0.4-0.2-0.9,0.2-1.2l4.4-3.2C59.3,210.5,59.4,210.4,59.6,210.4z"/>
			</g>
			<g>
				<path class="st0" d="M51.8,215.8c0.3,0,0.6,0.1,0.8,0.4c0.3,0.5,0.2,1.1-0.2,1.5l-5.1,3.7c-0.5,0.3-1.1,0.2-1.5-0.2
					c-0.3-0.5-0.2-1.1,0.2-1.5l5.1-3.7C51.4,215.9,51.6,215.8,51.8,215.8z"/>
			</g>
			<g>
				<path class="st0" d="M44.6,220.9c0.4,0,0.8,0.2,1,0.5c0.4,0.6,0.3,1.3-0.3,1.7L8.9,249.5c-0.6,0.4-1.3,0.3-1.7-0.3
					c-0.4-0.6-0.3-1.3,0.3-1.7l36.4-26.4C44.1,221,44.3,220.9,44.6,220.9z"/>
			</g>
			<g>
				<path class="st0" d="M71.7,216.7c0.2,0,0.3,0.1,0.4,0.2c0.1,0.2,0,0.5-0.2,0.6l-3.4,1.7c-0.2,0.1-0.5,0-0.6-0.2
					c-0.1-0.2,0-0.5,0.2-0.6l3.4-1.7C71.6,216.8,71.6,216.7,71.7,216.7z"/>
			</g>
			<g>
				<path class="st0" d="M65.2,219.5c0.3,0,0.6,0.2,0.7,0.5c0.2,0.4,0,0.9-0.4,1.1l-4.7,2.3c-0.4,0.2-0.9,0-1.1-0.4
					c-0.2-0.4,0-0.9,0.4-1.1l4.7-2.3C64.9,219.6,65.1,219.5,65.2,219.5z"/>
			</g>
			<g>
				<path class="st0" d="M56.9,223.4c0.4,0,0.8,0.2,0.9,0.6c0.3,0.5,0,1.1-0.5,1.4l-5.6,2.8c-0.5,0.3-1.1,0-1.4-0.5
					c-0.3-0.5,0-1.1,0.5-1.4l5.6-2.8C56.6,223.5,56.7,223.4,56.9,223.4z"/>
			</g>
			<g>
				<path class="st0" d="M49,227.1c0.5,0,0.9,0.3,1.1,0.7c0.3,0.6,0.1,1.4-0.6,1.7L8.7,249.6c-0.6,0.3-1.4,0.1-1.7-0.6
					c-0.3-0.6-0.1-1.4,0.6-1.7l40.8-20.1C48.6,227.2,48.8,227.1,49,227.1z"/>
			</g>
			<g>
				<path class="st0" d="M76.4,229.6c0.2,0,0.4,0.1,0.4,0.3c0.1,0.2-0.1,0.5-0.3,0.5l-3.4,0.9c-0.2,0.1-0.5-0.1-0.5-0.3
					c-0.1-0.2,0.1-0.5,0.3-0.5l3.4-0.9C76.3,229.6,76.3,229.6,76.4,229.6z"/>
			</g>
			<g>
				<path class="st0" d="M69.9,230.9c0.4,0,0.7,0.2,0.8,0.6c0.1,0.4-0.1,0.9-0.6,1l-4.7,1.3c-0.4,0.1-0.9-0.1-1-0.6
					c-0.1-0.4,0.1-0.9,0.6-1l4.7-1.3C69.8,230.9,69.9,230.9,69.9,230.9z"/>
			</g>
			<g>
				<path class="st0" d="M61.5,233c0.5,0,0.9,0.3,1,0.8c0.2,0.6-0.2,1.1-0.7,1.3l-5.8,1.6c-0.6,0.1-1.1-0.2-1.3-0.7
					c-0.2-0.6,0.2-1.1,0.7-1.3l5.8-1.6C61.3,233,61.4,233,61.5,233z"/>
			</g>
			<g>
				<path class="st0" d="M53.3,235c0.5,0,1.1,0.4,1.2,0.9c0.2,0.7-0.2,1.4-0.9,1.5L8.5,249.7c-0.7,0.2-1.4-0.2-1.5-0.9
					c-0.2-0.7,0.2-1.4,0.9-1.5L53,235C53.1,235,53.2,235,53.3,235z"/>
			</g>
			<g>
				<path class="st0" d="M78.5,241.9c0.2,0,0.4,0.2,0.4,0.4c0,0.2-0.1,0.4-0.4,0.5l-3.1,0.3c-0.2,0-0.4-0.1-0.5-0.4
					c0-0.2,0.1-0.4,0.4-0.5L78.5,241.9C78.5,241.9,78.5,241.9,78.5,241.9z"/>
			</g>
			<g>
				<path class="st0" d="M72.6,242c0.4,0,0.8,0.3,0.8,0.8c0,0.5-0.3,0.9-0.8,0.9l-4.5,0.4c-0.5,0-0.9-0.3-0.9-0.8
					c0-0.5,0.3-0.9,0.8-0.9L72.6,242C72.5,242,72.6,242,72.6,242z"/>
			</g>
			<g>
				<path class="st0" d="M64.6,242.5c0.5,0,1,0.4,1,0.9c0.1,0.6-0.4,1.1-0.9,1.1l-5.6,0.5c-0.6,0.1-1.1-0.4-1.1-0.9
					c-0.1-0.6,0.4-1.1,0.9-1.1L64.6,242.5C64.5,242.5,64.5,242.5,64.6,242.5z"/>
			</g>
			<g>
				<path class="st0" d="M56.5,243c0.6,0,1.2,0.5,1.2,1.1c0.1,0.7-0.4,1.3-1.1,1.4l-48.4,4.3c-0.7,0.1-1.3-0.4-1.4-1.1
					c-0.1-0.7,0.4-1.3,1.1-1.4l48.4-4.3C56.5,243,56.5,243,56.5,243z"/>
			</g>
		</g>
	</g>
	<g>
		<g>
			<g>
				<polygon class="st0" points="8.4,6.3 8.4,6.3 8.4,6.3 				"/>
			</g>
		</g>
		<g>
			<g>
				<path class="st0" d="M8.7,13.8L8.7,13.8c0,0.2-0.1,0.3-0.3,0.3c-0.1,0-0.3-0.1-0.3-0.3c0,0,0,0,0,0l0,0c0-0.1,0.1-0.3,0.3-0.3
					C8.5,13.5,8.7,13.6,8.7,13.8z"/>
			</g>
		</g>
		<g>
			<g>
				<path class="st0" d="M8.9,21.3L8.9,21.3c0,0.3-0.2,0.5-0.4,0.5c-0.3,0-0.5-0.2-0.5-0.5c0,0,0,0,0,0l0,0c0-0.3,0.2-0.5,0.5-0.5
					C8.7,20.8,8.9,21,8.9,21.3z"/>
			</g>
		</g>
		<g>
			<g>
				<path class="st0" d="M9.1,28.8L9.1,28.8c0,0.4-0.3,0.7-0.6,0.7c-0.4,0-0.7-0.3-0.7-0.6c0,0,0,0,0,0l0,0c0-0.4,0.3-0.7,0.7-0.6
					C8.8,28.1,9,28.4,9.1,28.8z"/>
			</g>
		</g>
		<g>
			<g>
				<path class="st0" d="M9.2,36.3L9.2,36.3c0,0.5-0.4,0.9-0.8,0.9c-0.5,0-0.8-0.4-0.8-0.8c0,0,0,0,0,0l0,0c0-0.5,0.4-0.8,0.8-0.8
					C8.9,35.4,9.2,35.8,9.2,36.3z"/>
			</g>
		</g>
		<g>
			<g>
				<path class="st0" d="M9.4,43.7L9.4,43.7c0,0.6-0.4,1-0.9,1c-0.5,0-1-0.4-1-1c0,0,0,0,0,0l0,0c0-0.5,0.5-1,1-1
					C8.9,42.8,9.4,43.2,9.4,43.7z"/>
			</g>
		</g>
		<g>
			<g>
				<path class="st0" d="M9.5,51.2L9.5,51.2c0,0.6-0.5,1.1-1.1,1.1c-0.6,0-1.1-0.5-1.1-1.1c0,0,0,0,0,0l0,0c0-0.6,0.5-1.1,1.1-1.1
					C9,50.2,9.5,50.7,9.5,51.2z"/>
			</g>
		</g>
		<g>
			<g>
				<path class="st0" d="M9.6,58.7L9.6,58.7c0,0.7-0.5,1.2-1.2,1.3c-0.7,0-1.2-0.5-1.2-1.2c0,0,0,0,0,0l0,0c0-0.7,0.5-1.2,1.2-1.2
					C9.1,57.6,9.6,58.1,9.6,58.7z"/>
			</g>
		</g>
		<g>
			<g>
				<path class="st0" d="M9.7,66.2L9.7,66.2c0,0.7-0.6,1.3-1.3,1.3c-0.7,0-1.3-0.6-1.3-1.3c0,0,0,0,0,0l0,0c0-0.7,0.6-1.3,1.3-1.3
					C9.1,65,9.7,65.5,9.7,66.2z"/>
			</g>
		</g>
		<g>
			<g>
				<path class="st0" d="M9.7,73.7L9.7,73.7c0,0.8-0.6,1.4-1.3,1.4c-0.7,0-1.3-0.6-1.3-1.3c0,0,0,0,0,0l0,0c0-0.7,0.6-1.3,1.3-1.3
					C9.1,72.4,9.7,73,9.7,73.7z"/>
			</g>
		</g>
		<g>
			<g>
				<path class="st0" d="M9.8,81.2L9.8,81.2c0,0.8-0.6,1.5-1.4,1.5c-0.8,0-1.4-0.6-1.4-1.4c0,0,0,0,0,0l0,0c0-0.8,0.6-1.4,1.4-1.4
					C9.2,79.8,9.8,80.5,9.8,81.2z"/>
			</g>
		</g>
		<g>
			<g>
				<path class="st0" d="M9.8,88.7L9.8,88.7c0,0.8-0.6,1.5-1.4,1.5c-0.8,0-1.4-0.6-1.4-1.4v0l0,0c0-0.8,0.6-1.4,1.4-1.4
					C9.2,87.3,9.8,87.9,9.8,88.7z"/>
			</g>
		</g>
	</g>
	<g>
		<g>
			<g>
				<polygon class="st0" points="244.5,247.9 244.5,247.9 244.5,247.9 				"/>
			</g>
		</g>
		<g>
			<g>
				<path class="st0" d="M237,248.1L237,248.1c-0.2,0-0.3-0.1-0.3-0.3c0-0.1,0.1-0.3,0.3-0.3c0,0,0,0,0,0l0,0c0.1,0,0.3,0.1,0.3,0.3
					C237.3,248,237.1,248.1,237,248.1z"/>
			</g>
		</g>
		<g>
			<g>
				<path class="st0" d="M229.5,248.3L229.5,248.3c-0.3,0-0.5-0.2-0.5-0.4c0-0.3,0.2-0.5,0.5-0.5c0,0,0,0,0,0l0,0
					c0.3,0,0.5,0.2,0.5,0.5C230,248.1,229.8,248.3,229.5,248.3z"/>
			</g>
		</g>
		<g>
			<g>
				<path class="st0" d="M222,248.5L222,248.5c-0.4,0-0.7-0.3-0.7-0.6c0-0.4,0.3-0.7,0.6-0.7c0,0,0,0,0,0l0,0c0.4,0,0.7,0.3,0.6,0.7
					C222.6,248.3,222.4,248.5,222,248.5z"/>
			</g>
		</g>
		<g>
			<g>
				<path class="st0" d="M214.5,248.7L214.5,248.7c-0.5,0-0.9-0.4-0.9-0.8c0-0.5,0.4-0.8,0.8-0.8c0,0,0,0,0,0l0,0
					c0.5,0,0.8,0.4,0.8,0.8C215.3,248.3,215,248.7,214.5,248.7z"/>
			</g>
		</g>
		<g>
			<g>
				<path class="st0" d="M207,248.9L207,248.9c-0.6,0-1-0.4-1-0.9c0-0.5,0.4-1,1-1c0,0,0,0,0,0l0,0c0.5,0,1,0.5,1,1
					C208,248.4,207.5,248.8,207,248.9z"/>
			</g>
		</g>
		<g>
			<g>
				<path class="st0" d="M199.5,249L199.5,249c-0.6,0-1.1-0.5-1.1-1.1c0-0.6,0.5-1.1,1.1-1.1c0,0,0,0,0,0l0,0c0.6,0,1.1,0.5,1.1,1.1
					C200.6,248.5,200.1,249,199.5,249z"/>
			</g>
		</g>
		<g>
			<g>
				<path class="st0" d="M192,249.1L192,249.1c-0.7,0-1.2-0.5-1.3-1.2c0-0.7,0.5-1.2,1.2-1.2c0,0,0,0,0,0l0,0c0.7,0,1.2,0.5,1.2,1.2
					C193.2,248.5,192.7,249.1,192,249.1z"/>
			</g>
		</g>
		<g>
			<g>
				<path class="st0" d="M184.5,249.2L184.5,249.2c-0.7,0-1.3-0.6-1.3-1.3c0-0.7,0.6-1.3,1.3-1.3c0,0,0,0,0,0l0,0
					c0.7,0,1.3,0.6,1.3,1.3C185.8,248.6,185.2,249.2,184.5,249.2z"/>
			</g>
		</g>
		<g>
			<g>
				<path class="st0" d="M177,249.2L177,249.2c-0.8,0-1.4-0.6-1.4-1.3c0-0.7,0.6-1.3,1.3-1.3c0,0,0,0,0,0l0,0c0.7,0,1.3,0.6,1.3,1.3
					C178.4,248.6,177.8,249.2,177,249.2z"/>
			</g>
		</g>
		<g>
			<g>
				<path class="st0" d="M169.5,249.3L169.5,249.3c-0.8,0-1.5-0.6-1.5-1.4c0-0.8,0.6-1.4,1.4-1.4c0,0,0,0,0,0l0,0
					c0.8,0,1.4,0.6,1.4,1.4C170.9,248.7,170.3,249.3,169.5,249.3z"/>
			</g>
		</g>
		<g>
			<g>
				<path class="st0" d="M162,249.3L162,249.3c-0.8,0-1.5-0.6-1.5-1.4c0-0.8,0.6-1.4,1.4-1.4h0l0,0c0.8,0,1.4,0.6,1.4,1.4
					C163.5,248.7,162.8,249.3,162,249.3z"/>
			</g>
		</g>
	</g>
</g>
</svg>
