<?xml version="1.0" encoding="utf-8"?>
<!-- Generator: Adobe Illustrator 24.3.0, SVG Export Plug-In . SVG Version: 6.00 Build 0)  -->
<svg version="1.1" id="Layer_1" xmlns="http://www.w3.org/2000/svg" xmlns:xlink="http://www.w3.org/1999/xlink" x="0px" y="0px"
	 viewBox="0 0 910 273" style="enable-background:new 0 0 910 273;" xml:space="preserve">
<style type="text/css">
	.st0{fill:#081C3C;}
</style>
<g>
	<g>
		<g>
			<g>
				<path class="st0" d="M516.6,161.9l1-2.6c-2.6-2.4-4.2-5.9-4.2-9.7c0-3.8,1.6-7.3,4.2-9.7l-1-2.6c-9.2,0-19.1,0.1-28.7,0.1
					c-6.3-0.1-12.6-0.1-18.9-0.1c-1.2,0-2.4,0-3.5,0l0,0c-2,0-3.9,0-5.9,0c-0.9-0.1-1.7-0.2-2.5-0.2c0,0,0,0,0,0c-1.1,0-2.8,0-3.2,0
					c0,1.4,0,2.8,0,4.2c2.3,3.1,3.4,11.7,3.5,17.6c0.2,20.8,0.4,41.6,0.6,62.4c0.1,5.9-0.8,14.6-3,17.7c0,1.4,0,2.8,0,4.2
					c9.6-0.1,21.3-0.2,32.9-0.2c8,0,16.2,0,23.8,0.1l1-2.6c-2.6-2.4-4.2-5.9-4.2-9.7c0-3.9,1.7-7.4,4.4-9.9L512,218l-28.7,0.7v-23
					c0.4-0.1,3.4,0.2,3.9,0.3c0.7,0.2,1.5,0.9,2.5,1.7c3,3.2,7.6,4.8,12.5,3.7c4.4-1.1,8.1-4.6,9.2-9.1c2.2-8.6-4.2-16.3-12.4-16.3
					c-4.4,0-8.2,2.2-10.5,5.5c-0.5,0.4-1,0.8-1.5,0.9c-0.3,0.1-2.9,0.5-3.8,0.5v-22.2L516.6,161.9z"/>
				<path class="st0" d="M70.4,28.5c0.9,8,1.9,16,2.8,24c-1.5,0.2-3,0.4-4.5,0.5c-3.6-1.7-9.9-1.8-16.2-1
					c2.7,21.7,5.5,43.4,8.2,65.1c0.9,5.6,2.8,12.5,5.1,15c0.2,1.4,0.3,2.8,0.5,4.1c-10.3,1.3-20.7,2.7-31,4.1
					c-0.2-1.4-0.4-2.8-0.6-4.1c1.8-3.4,1.6-12.1,0.8-18c-2.8-20.9-5.7-41.9-8.5-62.8c-6.1,0.9-11.9,2.6-14.8,5.1
					c-1.5,0.2-3,0.4-4.5,0.6c-1.1-8-2.2-15.9-3.4-23.9C26.4,34.1,48.4,31.2,70.4,28.5z"/>
				<path class="st0" d="M156.6,41.2c2,20.8,3.9,41.6,5.9,62.3c0.6,5.9,2.3,14.5,4.8,17.4c0.1,1.4,0.3,2.8,0.4,4.1
					c-9.9,0.9-19.8,1.9-29.7,2.9c-0.1-1.4-0.3-2.8-0.4-4.1c1.6-2.8,1.9-9.4,1.6-15c-1.2-11.9-2.4-23.7-3.6-35.6
					c-6.9,0.7-13.7,1.4-20.6,2.2c1.2,10.9,2.4,21.8,3.6,32.8c0.7,5.9,2.6,14.3,5.1,17.1c0.1,1.4,0.3,2.8,0.4,4.1
					c-9.9,1.1-19.8,2.2-29.7,3.3c-0.2-1.4-0.3-2.8-0.5-4.1c1.8-3.3,1.8-12.1,1.1-18C92.4,90,90,69.2,87.6,48.5
					c-0.7-5.9-2.7-14.4-5.3-17.2c-0.2-1.4-0.3-2.8-0.5-4.1c10.2-1.2,20.5-2.4,30.8-3.5c0.1,1.4,0.3,2.8,0.4,4.1
					c-1.9,3.3-2,11.9-1.4,17.8c0.3,2.9,0.6,5.9,1,8.8c6.9-0.8,13.8-1.5,20.7-2.2c-0.4-3.9-0.8-7.8-1.2-11.6
					c-0.8-5.5-2.5-11.9-4.7-14.4c-0.1-1.4-0.3-2.8-0.4-4.1c10.2-1.1,20.5-2.1,30.7-3c0.1,1.4,0.3,2.8,0.4,4.1
					C156.2,26.6,156,35.3,156.6,41.2z"/>
				<path class="st0" d="M233.8,12.9c0.6,8,1.1,16,1.7,24.1c-1.5,0.1-3,0.2-4.5,0.3c-3.5-1.9-12-2.2-18.4-1.7
					c-2.5,0.2-5,0.4-7.5,0.6c0.5,6.7,1.1,13.3,1.6,20c2.5-0.2,5-0.4,7.5-0.6c6.3-0.5,14.7-2,17.9-4.3c1.5-0.1,3-0.2,4.5-0.3
					c0.6,9,1.3,18,1.9,27.1c-1.5,0.1-3,0.2-4.4,0.3c-3.4-1.9-11.9-2.2-18.2-1.7c-2.5,0.2-4.9,0.4-7.4,0.6c0.6,7.7,1.2,15.3,1.8,23
					c2.5-0.2,4.9-0.4,7.4-0.6c6.2-0.5,14.5-2,17.6-4.3c1.5-0.1,2.9-0.2,4.4-0.3c0.6,8,1.1,16,1.7,24.1c-18.7,1.3-37.4,2.8-56.1,4.4
					c-0.1-1.4-0.2-2.8-0.4-4.2c1.9-3.3,2.1-12,1.6-17.9c-1.8-20.8-3.6-41.6-5.4-62.4c-0.5-5.9-2.3-14.5-4.8-17.4
					c-0.1-1.4-0.2-2.8-0.4-4.2C195.2,15.8,214.5,14.3,233.8,12.9z"/>
				<path class="st0" d="M347,84.2c0.9,26.2-25.2,30.3-41,31.1c-8.7,0.4-17.4,0.9-26.1,1.4c-0.1-1.4-0.2-2.8-0.2-4.2
					c2-3.2,2.5-12,2.2-17.9c-1.2-20.8-2.3-41.7-3.5-62.5c-0.3-5.9-1.8-14.6-4.3-17.5c-0.1-1.4-0.2-2.8-0.2-4.2c0,0,20-1.1,25.6-1.3
					c13.2-0.7,41.2-1.8,42.2,25.6c0.4,10.5-4.5,17.7-11.4,22.7C339.5,62,346.6,70.3,347,84.2z M303,52.5c8.6-1.3,15.3-5.7,15.1-12.5
					c-0.3-7.2-3.9-11.8-16.2-12C302.2,36.1,302.6,44.3,303,52.5z M323.5,81.5C323,70.7,313.4,68.6,303.8,69
					c0.4,9.1,0.9,18.2,1.3,27.4c0.3,0,0.5,0,0.8,0C318.3,95.8,323.9,92.3,323.5,81.5z"/>
				<path class="st0" d="M485.7,107.7c0,1.4,0,2.8,0,4.2c-10.8-0.1-21.5-0.2-32.3-0.2c0-1.4,0-2.8,0-4.2c1-3.1-1.5-11.8-3.7-17.7
					c-2.4-6.1-4.8-12.2-7.2-18.2c-3.4,0-6.8,0-10.3,0.1c0,6.1,0.1,12.2,0.1,18.3c0,0,0,0,0,0c0,5.9,1.1,14.6,3.3,17.7
					c0,1.4,0,2.8,0,4.2c-10,0.1-19.9,0.2-29.9,0.3c0-1.4,0-2.8-0.1-4.2c2.2-3.1,3-11.8,2.9-17.8c-0.3-20.9-0.6-41.7-0.9-62.6
					c-0.1-5.9-1.2-14.6-3.5-17.7c0-1.4,0-2.8-0.1-4.2c12.1-0.2,24.1-0.3,36.2-0.4c15.7-0.1,43.2,1.6,42.9,31.8
					c-0.2,16.6-7.5,25.2-16,29.7c3,7.7,5.9,15.4,8.8,23.1C478.1,95.9,482.3,104.6,485.7,107.7z M458.3,37.5
					c0-11.5-10.3-12.1-18-12.1c-2.8,0-5.6,0-8.4,0.1c0.1,8.9,0.1,17.7,0.2,26.6c2.8,0,5.6,0,8.4-0.1C451,52,458.3,49.3,458.3,37.5z"
					/>
				<path class="st0" d="M558.5,7c-0.3,8-0.6,16.1-0.8,24.1c-1.5,0-3-0.1-4.5-0.1c-3.3-2.2-9.4-3.3-15.8-3.5
					c-0.6,21.9-1.2,43.7-1.8,65.6c0.1,5.7,0.8,12.8,2.7,15.6c0,1.4-0.1,2.8-0.1,4.2c-10.4-0.3-20.8-0.5-31.2-0.7
					c0-1.4,0-2.8,0.1-4.2c2.3-3.1,3.4-11.7,3.5-17.7c0.4-21.1,0.8-42.3,1.1-63.4c-6.2,0-12.1,0.8-15.3,2.8c-1.5,0-3,0-4.5-0.1
					c0.1-8.1,0.2-16.1,0.3-24.2C514.3,5.8,536.4,6.2,558.5,7z"/>
				<path class="st0" d="M643.4,32.7c-1.2,20.8-2.5,41.7-3.7,62.5c-0.3,5.9,0.1,14.7,2.1,17.9c-0.1,1.4-0.2,2.8-0.2,4.2
					c-9.9-0.6-19.9-1.1-29.8-1.6c0.1-1.4,0.1-2.8,0.2-4.2c2-2.5,3.3-9,3.8-14.6c0.6-11.9,1.2-23.8,1.8-35.7
					c-6.9-0.4-13.8-0.7-20.7-1c-0.5,11-1,22-1.5,32.9c-0.3,5.9,0.3,14.5,2.4,17.7c-0.1,1.4-0.1,2.8-0.2,4.2
					c-10-0.5-19.9-0.9-29.9-1.2c0-1.4,0.1-2.8,0.1-4.2c2.3-3,3.6-11.7,3.8-17.6c0.8-20.9,1.5-41.7,2.3-62.6
					c0.2-5.9-0.5-14.7-2.6-17.8c0-1.4,0.1-2.8,0.1-4.2c10.3,0.4,20.6,0.8,30.9,1.3c-0.1,1.4-0.1,2.8-0.2,4.2
					c-2.4,3-3.8,11.5-4.1,17.4c-0.1,3-0.3,5.9-0.4,8.9c6.9,0.3,13.9,0.6,20.8,1c0.2-3.9,0.4-7.8,0.6-11.7c0-5.6-0.6-12.2-2.4-14.9
					c0.1-1.4,0.1-2.8,0.2-4.2c10.3,0.5,20.5,1.1,30.8,1.7c-0.1,1.4-0.2,2.8-0.2,4.2C645.2,18.1,643.7,26.7,643.4,32.7z"/>
				<path class="st0" d="M744.7,72.4c-2.5,27.2-10.1,34.6-14.9,39.3c-4.8,4.7-17.4,10.7-43.2,8.7c-8.6-0.7-17.2-1.3-25.9-1.9
					c0.1-1.4,0.2-2.8,0.3-4.2c2.4-2.9,4-11.6,4.4-17.5c1.4-20.8,2.8-41.7,4.2-62.5c0.4-5.9,0-14.7-2.1-17.9c0.1-1.4,0.2-2.8,0.3-4.2
					c5.1,0.3,10.3,0.7,15.4,1.1c30.8,2.2,42.1,5.6,50.2,12.9C742.1,34.2,747.2,45.2,744.7,72.4z M718.8,50.5
					c-3.9-12.9-18.8-12.7-26-13.2c-1.5,20.7-3.1,41.5-4.6,62.2c1.9,0.1,2.7,0.2,5.4,0.4c6.3,0.5,19.2,0.4,23.5-12.7
					C718.9,81,721.2,58.8,718.8,50.5z"/>
				<path class="st0" d="M905.8,37.2c-0.2,1.4-0.4,2.8-0.6,4.1c-4.3,2.5-11.5,15.1-12.1,16.1c-5.4,9.7-10.8,19.3-16.1,29
					c-1.4,10.5-2.8,21-4.3,31.5c0,0,0,0,0,0c-0.8,5.9-1,14.6,0.8,18c-0.2,1.4-0.4,2.8-0.6,4.1c-10.1-1.4-20.2-2.7-30.3-4
					c0.2-1.4,0.3-2.8,0.5-4.1c2.6-2.8,4.6-11.3,5.4-17.2c0,0,0,0,0,0c1.3-10.5,2.7-21,4-31.5c-2.6-10.7-5.3-21.5-8-32.2
					c-0.3-1.2-4-15.2-7.5-18.7c0.2-1.4,0.3-2.8,0.5-4.1c8.3,1,16.6,2,24.8,3.1c1.7,11.1,3.4,22.2,5,33.3
					c4.5-10.3,8.9-20.6,13.5-30.9C889.2,34.9,897.5,36,905.8,37.2z"/>
				<path class="st0" d="M225.3,145.5c0.1,1.4,0.2,2.8,0.3,4.2c-1.9,3.3-2.2,12-1.8,17.9c0,0,0,0,0,0c1.3,17.6,2.7,35.2,4,52.8
					c1.3,18.4-12.5,34.5-30.9,36.1c-18.4,1.6-34.9-11.8-36.7-30.2c-1.7-17.6-3.5-35.1-5.2-52.7c-0.6-5.9-2.4-14.5-4.9-17.3
					c-0.1-1.4-0.3-2.8-0.4-4.1c10.3-1,20.7-2,31-2.9c0.1,1.4,0.2,2.8,0.4,4.2c-1.9,3.3-2,11.9-1.5,17.8c1.6,17.1,3.1,34.2,4.7,51.3
					c0.7,8.1,4.2,11.9,10.8,11.4c6.4-0.6,9.3-5.2,8.6-13c-1.4-17.1-2.9-34.1-4.3-51.2c-0.5-5.9-2.2-14.5-4.6-17.4
					c-0.1-1.4-0.2-2.8-0.4-4.2C204.6,147.1,215,146.3,225.3,145.5z"/>
				<path class="st0" d="M302,247.3c-18.9,1-37.8,2.1-56.7,3.5c-0.5-7-1-14-1.5-21c9.9-22.2,20.1-44.3,30.6-66.4
					c-5.2,0.3-10.4,0.6-15.7,1c-6.1,0.4-12.2,1.7-15.7,4.1c-1.4,0.1-2.8,0.2-4.2,0.3c1.3-8.1,2.6-16.3,3.9-24.4
					c19.6-1.4,39.1-2.5,58.7-3.5c0.4,7,0.7,14,1.1,21.1c-10.7,22-21.1,44-31.2,66.1c5.1-0.3,10.2-0.6,15.4-0.9
					c6-0.3,12-1.6,15.5-3.9c1.4-0.1,2.7-0.1,4.1-0.2C304.7,231.1,303.3,239.2,302,247.3z"/>
				<path class="st0" d="M374.4,244.4c-18.9,0.5-37.8,1.2-56.7,2.1c-0.3-7-0.7-14.1-1-21.1c10.5-21.9,21.2-43.8,32.2-65.6
					c-5.2,0.2-10.5,0.4-15.7,0.6c-6.1,0.2-12.2,1.4-15.8,3.7c-1.4,0.1-2.8,0.1-4.2,0.2c1.5-8.1,3-16.2,4.5-24.3
					c19.6-0.9,39.2-1.6,58.8-2.1c0.2,7,0.4,14.1,0.5,21.1c-11.2,21.7-22.1,43.5-32.8,65.3c5.1-0.2,10.2-0.4,15.4-0.5
					c6-0.2,12-1.3,15.6-3.5c1.4,0,2.7-0.1,4.1-0.1C377.5,228.3,375.9,236.4,374.4,244.4z"/>
				<path class="st0" d="M446.3,219.2c0,8,0,16.1,0.1,24.1c-18.4,0.1-36.9,0.3-55.3,0.7c0-1.4-0.1-2.8-0.1-4.2
					c2-3.1,2.8-11.9,2.7-17.8c0,0,0,0,0,0c-0.4-20.9-0.9-41.8-1.3-62.7c0,0,0,0,0,0c-0.1-5.9-1.3-14.6-3.5-17.7
					c0-1.4-0.1-2.8-0.1-4.2c9.9-0.2,19.8-0.4,29.6-0.5c0,1.4,0,2.8,0,4.2c-2.1,3.1-3,11.7-2.9,17.7c0.3,21.2,0.5,42.3,0.8,63.5
					c2.9,0,5.7-0.1,8.6-0.1c6-0.1,14-1,17.1-3.1C443.5,219.2,444.9,219.2,446.3,219.2z"/>
				<path class="st0" d="M545.6,230.8c-0.2,6.9-6,12.4-13,12.2c-6.9-0.2-12.4-5.9-12.3-12.8c0.1-6.9,6-12.4,13-12.2
					C540.4,218,545.9,223.8,545.6,230.8z"/>
				<path class="st0" d="M630.5,219.7c-0.4,1.2-0.8,2.5-1.2,3.7c-1.6,1-2.6,1.5-5.6,6.3c0,0,0,0,0,0c-9,14-22.9,20.2-36.7,19.6
					c-21.6-1-40.6-18.8-39.4-57.5c1.2-38.7,22.1-55.2,44.6-54.1c12.7,0.6,24.9,6.7,32.6,19.4c0,0,0,0,0,0c0,0.1,0.1,0.1,0.1,0.2
					c0.7,1.1,1.3,2.3,1.9,3.6c0.6,1.1,1,1.6,2.5,2.4c0.5,1.3,1.1,2.6,1.6,3.9c-8.8,3-17.5,6.1-26.2,9.2c-0.5-1.2-0.9-2.5-1.4-3.7
					c0.6-1.6,0.5-2.4-0.7-6.4c-2.3-6.1-6-9.9-11.4-10.1c-11.8-0.5-17.4,15.9-18.3,38.5c-0.8,18.9,3.4,34.7,14.9,35.2
					c5.3,0.2,9.2-2.9,12.1-8.4c1.3-2.9,1.8-4.7,0.8-7.3c0.4-1.3,0.8-2.7,1.2-4C611.4,213.2,621,216.4,630.5,219.7z"/>
				<path class="st0" d="M719.8,204.1c-3.3,36.1-26,51.2-47.5,49.6c-21.5-1.6-40.1-19.9-37.8-58.6c2.3-38.7,23.7-54.5,46.2-52.8
					C703.2,144,723.6,163.1,719.8,204.1z M692.5,199.7c1.7-21.1-1.3-38-13.1-38.9c-11.8-0.9-17.9,15.4-19.4,37.9
					c-1.3,18.9,2.4,34.8,13.9,35.7C685.2,235.3,690.8,220.1,692.5,199.7z"/>
				<g>
					<path class="st0" d="M823.8,112.1c-2.2-21.6-4.5-43.1-6.9-64.7c-0.7-6-0.7-14.7,1.2-17.6c-0.2-1.4-0.3-2.8-0.5-4.2
						c-13-1.5-25.9-2.9-38.9-4.2c-0.5,1.4-0.9,2.7-1.4,4.1c1.3,3.2-0.6,11.8-2.5,17.6c-6.8,20.3-13.5,40.6-20.1,60.9
						c-1.9,5.8-5.6,14.2-8.8,17c-0.1,1.4-0.3,2.8-0.4,4.1c9.1,0.9,18.3,1.8,27.4,2.7l2.5-1.1c0,0,5.8-27.8,6.6-33.8l0.9-1.2
						c7.1,0.7,9.5,1.3,16.5,2.1l0.7,1.4c-0.6,5.8-2.3,33.6-2.3,33.6l2.3,1.9c9.3,1,18.6,2.1,27.9,3.2c0.2-1.4,0.3-2.8,0.5-4.1
						C826.4,126.6,824.5,118.1,823.8,112.1z M802.7,73.6C802.7,73.6,802.7,73.6,802.7,73.6c-0.7,5.2-5.4,8.9-10.7,8.3c0,0,0,0,0,0
						c-5.2-0.7-8.9-5.4-8.3-10.7s11.6-16,11.6-16S803.4,68.4,802.7,73.6z"/>
				</g>
			</g>
			<g>
				<path class="st0" d="M386.4,26.8l1.2,63.3c0.1,6,1.2,14.8,3.4,17.9l0.1,4.2l-28.8,0.6l-0.1-4.2c2.1-3.2,2.8-12,2.7-18l-1.2-63.3
					c-0.1-6-1.2-14.8-3.4-17.9l-0.1-4.2L389,4.6l0.1,4.2C387,12,386.2,20.8,386.4,26.8z"/>
			</g>
		</g>
		<path class="st0" d="M47,204.7"/>
		<path class="st0" d="M34.6,111.4"/>
		<g>
			<path class="st0" d="M143,182.1c4.6,32.8-21.6,38.4-31.3,39.7l-11.8,1.6l2.6,18.4l0-0.1c0.8,6,3,14.5,5.5,17.4l0.6,4.2l-28.6,4
				l-0.6-4.2c1.6-3.2,1.4-11.1,0.7-17l-9.1-65.3c-0.9-5.8-3-13.5-5.3-16.1l-0.6-4.2l33.6-4.7C113.2,153.8,138.8,151.8,143,182.1z
				 M120,185.8c-1.6-11.6-11.3-10.8-18.5-9.8l-8.1,1.1l3.7,26.7l8.1-1.1C115.1,201.3,121.6,197.6,120,185.8z"/>
		</g>
		<g>
			<path class="st0" d="M830.1,182.2l-7.5,63c-0.7,6-0.8,14.8,1,18.2l-0.5,4.2l-29.5-3.5l0.5-4.2c2.5-2.9,4.5-11.5,5.2-17.4l6.2-52
				l-20.3,50.3c-2.3,5.8-4.8,14.3-3.8,17.6l-0.5,4.2l-18.2-2.2l0.5-4.2c1.6-2.7,1.4-10.4,0.6-16.4l-8.3-55.9l-6.3,52.6
				c-0.7,6-0.8,14.8,1,18.2l-0.5,4.2l-29.5-3.5l0.5-4.2c2.5-2.9,4.5-11.5,5.2-17.5l7.5-63c0.7-6,0.8-14.8-1-18.2l0.5-4.2l43.9,5.2
				l-0.5,4.2c-1.7,3-1.4,11.9-0.5,18l3.6,20.8l8.4-19.4c2.5-5.8,5.2-14.3,4.3-17.6l0.5-4.2l43.2,5.1l-0.5,4.2
				C832.8,167.6,830.8,176.2,830.1,182.2z"/>
		</g>
	</g>
	<g>
		<path class="st0" d="M856.5,167.3l-3.1-0.4l-1.7,13.7l-3.8-0.5l1.7-13.7l-3-0.4l0.4-3.4l9.9,1.2L856.5,167.3z"/>
		<path class="st0" d="M869.2,165.4l5.5,0.7l-2.1,17.1l-3.6-0.4l1.4-11.8l-4.6,11.5l-1.5-0.2l-1.7-12.3l-1.5,11.9l-3.6-0.4l2.1-17.1
			l5.6,0.7l1.1,7L869.2,165.4z"/>
	</g>
</g>
</svg>
